<svg xmlns="http://www.w3.org/2000/svg" viewBox="0 0 1447.52 1462.71"><defs><style>.cls-1,.cls-2,.cls-3,.cls-4,.cls-5,.cls-6,.cls-7{fill:none;stroke:#000;stroke-miterlimit:10;}.cls-1{stroke-width:1.75px;}.cls-2{stroke-width:1.5px;}.cls-3{stroke-width:1.8px;}.cls-5{stroke-width:0.25px;}.cls-6{stroke-width:0.5px;}.cls-7{stroke-width:0.75px;}</style></defs><g id="big_purple_sections" data-name="big purple sections"><path class="cls-1" d="M1000.5,709.5s255.5-96.5,155-601C972.5,175.5,825,457,914,611c0,0-42.85-7.62-99.75,71.93-5.07,7.09-5.23,18.76.25,25.53a3.61,3.61,0,0,1,.79,1.58,1.42,1.42,0,0,1-2,1.6l-11.87-5.94a7.82,7.82,0,0,0-7,0C767.26,719.53,601.16,819.64,719,1152" transform="translate(2.74 10.89)"/><path class="cls-2" d="M804,1257c74-76,84-493,84-493l27-152" transform="translate(2.74 10.89)"/><path class="cls-1" d="M903.17,678.6S925,656,920,634s41-56,81,76c0,0,43.51,168.4,58.2,261.46a530.26,530.26,0,0,0,12.08,56.62c3.47,12.75,10.72,32.41,10.72,38.92,0,0-156.59-37.89-201.3-164" transform="translate(2.74 10.89)"/><path class="cls-3" d="M886,616.88S819,449,692,340c-30-25.72-69.09-47-105.82-76.34a1.14,1.14,0,0,0-1.82,1.18c13.43,50.69,44.67,93.41,70.47,138.35,22.08,38.47,45.16,76.36,69.81,113.24,20.58,30.79,42.05,61.48,67,89,13.23,14.59,33.43,38.68,55.2,39.18" transform="translate(2.74 10.89)"/><path class="cls-3" d="M826.17,637.68s-176.54-28.18-325.86-2.43" transform="translate(2.74 10.89)"/><path class="cls-3" d="M750,739s-80,24-266,91c-164.26,54.75-335.21,31.12-359.56-3.61a3.14,3.14,0,0,1,.46-4.13C162.94,787.48,191,772,191,772" transform="translate(2.74 10.89)"/><path class="cls-3" d="M799,1217s-64-65-105.57-78c-6.56-2.18-19.37-3.59-26.27-4-38.25-2.55-77.09,5.71-114.48,12.73-41.51,7.79-83.09,17.53-125.47,18.53-18,.42-36-.27-53.93-1.54-28.5-2-57.15-4.2-85.71-4.67-29.37-.48-58.92-6.82-88.29-4.34-8.42.71-19.24,2.38-24.89,9.3,3.76,4.41,12.6,5.18,18.22,7.1,14.07,4.82,26.91,12.58,40.19,19.27,92.53,46.59,214.91,38.54,316.17,41,81.06,2,169.09-4.75,248.72,13.26l1.31.3" transform="translate(2.74 10.89)"/><path class="cls-4" d="M157.07,1016.19s-1,11.4-19.57,20.31c-33.2,15.9-44.65-14.67-71.54,27.35" transform="translate(2.74 10.89)"/><line class="cls-4" x1="41.49" y1="1094.04" x2="27.81" y2="1106.09"/><path class="cls-4" d="M186,1066.85s-28.83,6.81-41.94,93.55c-6.51,43.1,8.72,45.87,8.72,45.87s3.33,2.92,7.55-6.42" transform="translate(2.74 10.89)"/><path class="cls-4" d="M296,1091.16s27.16.34,87.83,28.34" transform="translate(2.74 10.89)"/><line class="cls-4" x1="531.11" y1="1025.15" x2="329.76" y2="1172.29"/><path class="cls-4" d="M545.5,1032.5s-132.45,96.43-172.22,132.21" transform="translate(2.74 10.89)"/><path class="cls-4" d="M503,907.4s-53,11.42-77.75,19.26" transform="translate(2.74 10.89)"/><line class="cls-4" x1="384.89" y1="949.65" x2="374.99" y2="954.37"/><path class="cls-4" d="M233.76,1021.85s-22.26,6.31-18.26,7.48" transform="translate(2.74 10.89)"/><path class="cls-4" d="M485.5,970.5l-67.11,13.37a32.55,32.55,0,0,1-19.13-1.72c-4-1.63-9.71-5.81-12.23-3.26-9.53,9.61-74.86,61.13-74.86,61.13" transform="translate(2.74 10.89)"/><path class="cls-4" d="M416.19,948.51s-14,20.77-8.36,30.38" transform="translate(2.74 10.89)"/><path class="cls-4" d="M403.79,978.89s-5.85-12.21-15.57-11.3" transform="translate(2.74 10.89)"/><path class="cls-4" d="M370.62,986.72s-23.88,9.37-49.5,10.08" transform="translate(2.74 10.89)"/><path class="cls-4" d="M513.63,1025s-24.13-6.53-27.13-35.53,3-88,53.74-120c17.29-10.92,24.27-2.44,24.27-2.44s-3.06,13,0,16.22c6,6.25-1,127.25-19,149.25" transform="translate(2.74 10.89)"/><path class="cls-4" d="M495.5,990.5c3,0,9-8,22-7s21.47,42.61,22.74,46.8" transform="translate(2.74 10.89)"/><path class="cls-4" d="M232.55,329.81s28.65-94.36,7.19-129.27c-25.24-41-31.56-29.5-31.38-41.07.09-6.08-35.61,4.59-38.43,5.44-18,5.43-36.3,10.59-51.39,22.28C92,207.75,78.77,242.78,71.62,274.58c-7.75,34.49.16,71.25,22.63,98.71" transform="translate(2.74 10.89)"/><path class="cls-4" d="M292.23,336.1s-96-20.33-138.85,10a4.11,4.11,0,0,1-3.62,0c-11.26-4.63-18.58,9.52-50.26,24.37-32,15-102,51-102,51" transform="translate(2.74 10.89)"/><path class="cls-4" d="M282.79,370.13s-28.71-8.78-64.26-4.66a6.75,6.75,0,0,0-5.31,4c-7.11,15.83-56.09,34.16-65.07,29.75C138.5,394.5,0,453.79,0,453.79" transform="translate(2.74 10.89)"/><path class="cls-4" d="M75.87,381.93S11.5,373.54,0,359" transform="translate(2.74 10.89)"/><path class="cls-4" d="M40,399.88S8.5,392.78,0,384.64" transform="translate(2.74 10.89)"/><path class="cls-4" d="M92.12,218.13S36.5,12.5,22.5,11.5c-5-.36,58.39,230.41,54.7,242.21" transform="translate(2.74 10.89)"/><path class="cls-4" d="M73.05,227.67c1.45,2.83-69.55-27.9-73-37" transform="translate(2.74 10.89)"/><path class="cls-4" d="M77.14,249.09S53.5,243.5,48.5,246.5,62,302.23,68.73,302.87" transform="translate(2.74 10.89)"/><path class="cls-4" d="M81.07,353S5.5,320.5,4.5,268.5" transform="translate(2.74 10.89)"/><path class="cls-4" d="M47.65,282.64s-9.94-12.24-20-17.19S-2.5,271.31-2.5,271.31" transform="translate(2.74 10.89)"/><path class="cls-4" d="M20,307.8s-17.47-14-20-25.16" transform="translate(2.74 10.89)"/><path class="cls-4" d="M70.28,359C68.5,357.5,8.5,330.42,0,320.46" transform="translate(2.74 10.89)"/><path class="cls-4" d="M85.51,377.2S24.5,360,0,339.74" transform="translate(2.74 10.89)"/><path class="cls-4" d="M20,369.88S4.26,355,8.38,345.73" transform="translate(2.74 10.89)"/><path class="cls-4" d="M243.93,416.61s-68-3.34-85.71-16.73" transform="translate(2.74 10.89)"/><path class="cls-4" d="M231.91,434.43c-1.41,1.07-27.93,2.06-42.17-1.94" transform="translate(2.74 10.89)"/><path class="cls-4" d="M158.22,428.57c-1.72-.07-48-14.39-48.85-18.73" transform="translate(2.74 10.89)"/><path class="cls-4" d="M131.13,464.08s-90.2,49-132.92,65.71" transform="translate(2.74 10.89)"/><path class="cls-4" d="M119,470.58c.48-.08-16.11,14.59-2.49,23.4,7,4.52,32.85-5,32.85-5" transform="translate(2.74 10.89)"/><path class="cls-4" d="M76.08,493S43.71,570,35.61,582.23" transform="translate(2.74 10.89)"/><path class="cls-4" d="M121.65,495.49s-12.73,19.65-10.5,27.22c4.35,14.79,5.38,22,5.38,22" transform="translate(2.74 10.89)"/><path class="cls-4" d="M210.5,528.27s-65.27,94-65.63,104.11" transform="translate(2.74 10.89)"/><path class="cls-4" d="M311,524.78s-8.23,23.32-13.88,32.52" transform="translate(2.74 10.89)"/><path class="cls-4" d="M271.56,597.37s-7.3,10.72-15.18,19.93" transform="translate(2.74 10.89)"/><path class="cls-4" d="M518.18,421.78S422.84,378.58,412.67,374" transform="translate(2.74 10.89)"/><path class="cls-4" d="M459,465.75s-37.58,1.37-46,.56" transform="translate(2.74 10.89)"/><path class="cls-4" d="M575.5,334.5s-30.25-34.56-50.12-44.78S405.78,273,375.14,295.24" transform="translate(2.74 10.89)"/><path class="cls-4" d="M369.2,307.87s5.45,8.32,12.26,11.28" transform="translate(2.74 10.89)"/><path class="cls-4" d="M399.64,336.86s87.22,61.46,118.54,65.55" transform="translate(2.74 10.89)"/><path class="cls-4" d="M622,384.5s-44.52-31-41.06-47.64c.73-3.56-36-6.27-48.77-7.1-2.33-.15-4.64-.46-6.94-.84s-5.75-1.42-7.07.57c-1.85,2.8-1,5.59,9.09,15.24S576.5,377.5,638.5,393.5" transform="translate(2.74 10.89)"/><path class="cls-4" d="M530.5,353.5s-20.18,26.5,12.41,58.77C580.5,449.5,606.83,454,606.83,454" transform="translate(2.74 10.89)"/><path class="cls-4" d="M636.87,457.54c2.63,0,26.45,5.36,41-14.34" transform="translate(2.74 10.89)"/><path class="cls-4" d="M600.08,307.4s-23.58,18.1-24.58,27.1" transform="translate(2.74 10.89)"/><path class="cls-4" d="M625,292S683.5,262.5,744.5,287.5" transform="translate(2.74 10.89)"/><path class="cls-4" d="M600.08,366.81s-.54-6.28,24.94-13.3" transform="translate(2.74 10.89)"/><path class="cls-4" d="M612.55,377.39s-2-14.27,20.49-10.58" transform="translate(2.74 10.89)"/><path class="cls-4" d="M410.9,1134.52s30.4,17.41,39,30.19" transform="translate(2.74 10.89)"/><path class="cls-4" d="M293.16,1290.93c3.34,1.57,39.95,22,147.15,21.26" transform="translate(2.74 10.89)"/><path class="cls-4" d="M521.36,1231.93c2.14-.43,13.14,9.57,14.14,15.57" transform="translate(2.74 10.89)"/><path class="cls-4" d="M804,1262.33S674.52,1308,658.5,1308.5c-30,1-92.79,32.39-178,22-31.18-3.8-38.76-.37-40.6,1.49a.85.85,0,0,1-1.36-.17,15.52,15.52,0,0,1-1-11.32c11.16-44.64,65-57,67.84-57.77s62.26-30,62.26-30" transform="translate(2.74 10.89)"/><path class="cls-4" d="M480.5,1330.5s-149,100.58-148.51,108.79" transform="translate(2.74 10.89)"/><path class="cls-4" d="M701.5,1370.5s-67.73,15.66-84,22c-59,23-155.26,46.79-155.26,46.79" transform="translate(2.74 10.89)"/><path class="cls-4" d="M754.21,1279.51s-36.71,9-42.71,37c-2.61,12.18-4.92,24.42-7.23,36.66-1.19,6.36-2.31,12.73-3.48,19.09-1.38,7.46-3.76,14.87-2.43,22.57,2.61,15,16.95,26.77,30.14,32.68,29,13,27,8,39,20" transform="translate(2.74 10.89)"/><path class="cls-4" d="M817.5,1344.5c1-1,55.49-10.3,73-3,12,5-38,101-38,101" transform="translate(2.74 10.89)"/><path class="cls-4" d="M890.5,1341.5s102-69,104-68" transform="translate(2.74 10.89)"/><path class="cls-4" d="M869.62,1407.78c1.88-4.28,146.88-102.28,177.88-109.28" transform="translate(2.74 10.89)"/><path class="cls-4" d="M1064.5,1292.5s-28.55,31.39-31.52,60.64c-2.48,24.36-10.48,92.36-15.48,98.36" transform="translate(2.74 10.89)"/><path class="cls-4" d="M852.09,1130.55s39.1-73.76,136.41-59c74.51,11.26,115.25,42,124.8,50.07a10.68,10.68,0,0,0,8,2.54c3.83-.45,7.84-3,6.15-12.61a198.94,198.94,0,0,1-3-31" transform="translate(2.74 10.89)"/><path class="cls-4" d="M846.42,1156.11s28.49,3.38,34.28,25.38-28.61,18.34-28.61,18.34" transform="translate(2.74 10.89)"/><path class="cls-4" d="M825.4,1222.34s42.22.06,63.2,25.41a19.16,19.16,0,0,0,11,6.66c20.79,4.18,81.23,16.35,109.94,22.09a213.43,213.43,0,0,0,62.59,3" transform="translate(2.74 10.89)"/><path class="cls-4" d="M421.54-1.5s-26,103.21-58,137.1c0,0,30.23-3.54,53.62-47.32S469.05,2.5,468.78,0" transform="translate(2.74 10.89)"/><path class="cls-4" d="M808.43,40.5s-208.93,17-323.32,99c0,0-53.08,43.45-50.34,69.71" transform="translate(2.74 10.89)"/><path class="cls-4" d="M836.1,390.63c.4-.13,16.11-31.35,31.52-45.39,12.88-11.74,22.61-27.15,77.75-41.95" transform="translate(2.74 10.89)"/><path class="cls-4" d="M892.5,441s-22.78,7.77-29.94,7.69C845.5,448.5,805.5,429.41,790.5,429" transform="translate(2.74 10.89)"/><path class="cls-4" d="M614.29,562.5s-31.16,45.24-30,64.12" transform="translate(2.74 10.89)"/><path class="cls-4" d="M652.74,555.74s-28.39,68.57-22.81,68.66" transform="translate(2.74 10.89)"/><path class="cls-4" d="M634.09,604.4A87.5,87.5,0,0,1,651.25,581a20.7,20.7,0,0,1,4.87-3.67c2-1,4.17-1.41,6.15-2.38a12.76,12.76,0,0,0,6.92-12.41" transform="translate(2.74 10.89)"/><path class="cls-4" d="M683.83,495.87s-9,29.91-8.67,35.27" transform="translate(2.74 10.89)"/><path class="cls-4" d="M667.1,570.64s-1.11,52.54,2.14,54.7" transform="translate(2.74 10.89)"/><line class="cls-4" x1="781.59" y1="634.87" x2="781.59" y2="642.63"/><path class="cls-4" d="M111.51,1355.42s-2.54,44.25-7.28,53.67" transform="translate(2.74 10.89)"/><path class="cls-4" d="M27.86,1375.5s-4,11.5-6.19,16.75" transform="translate(2.74 10.89)"/><path class="cls-4" d="M13.5,1425.13a17.32,17.32,0,0,1-4.76,19" transform="translate(2.74 10.89)"/><path class="cls-4" d="M157.07,1105.33s-15.21,21.5-19.89,37.34" transform="translate(2.74 10.89)"/><path class="cls-4" d="M451,222.5s106,33.3,135.76,50.65" transform="translate(2.74 10.89)"/><path class="cls-4" d="M545.12,254.87c11.38-.37,49.87,6,67.43-1,4.32-1.72,3.91,5.58,3.36,9.71a1.26,1.26,0,0,0,1.83,1.3c2.47-1.28,6.54-2.81,10.14-1.47,5.62,2.09,8.63,23.85,8.63,23.85" transform="translate(2.74 10.89)"/><path class="cls-4" d="M821.25,470.39s23.56,2.5,26.41-2.69-6.89-23.5-6.89-23.5" transform="translate(2.74 10.89)"/><path class="cls-4" d="M824.22,478.48s23.91,3.2,29.09-5.39,16.71-23.84,21.52-26.25" transform="translate(2.74 10.89)"/><path class="cls-4" d="M902.25,292s62.75-28.67,68-28.57" transform="translate(2.74 10.89)"/><path class="cls-4" d="M1011.75,210.79s-14.25-4.29-9.25-9.29,14.8-15.42,27.4-9.71" transform="translate(2.74 10.89)"/><path class="cls-4" d="M1116.64,126.16S1180.81,63,1225.45,33.78a120,120,0,0,0,19.64-16c6.37-6.44,16.31-14.61,28.09-17.74.51-.13-3.51,7.34-6.52,27.57a201.3,201.3,0,0,1-5.11,24.15c-9.7,34.86-37.66,121.59-88,174.88" transform="translate(2.74 10.89)"/><path class="cls-4" d="M1145.14,99.25s13.36-44.75,0-59.76c-21-23.58-109.48,41.54-116.56,150.77" transform="translate(2.74 10.89)"/><path class="cls-4" d="M1020.44,190.26s-12.07-52.25-19-57-25.54-35.33-26.24-43S963,8.5,970.25,0" transform="translate(2.74 10.89)"/><line class="cls-4" x1="1008.76" y1="228.14" x2="1006.46" y2="217.91"/><path class="cls-4" d="M1002.5,201.5s-17-53-24.44-56c-5.24-2.11-44.11-75.74-66.83-79.87S869.5,49,869,54.75" transform="translate(2.74 10.89)"/><path class="cls-4" d="M978.06,145.5s9.31-14.49,23.38-12.25" transform="translate(2.74 10.89)"/><path class="cls-4" d="M965.22,40.5s.28,34-6.72,38c-3.13,1.79-32.55-35-49.27-35" transform="translate(2.74 10.89)"/><path class="cls-4" d="M938.23-3.67s-10.46,8.12-7.7,25.74A48.58,48.58,0,0,1,931.2,31c-.25,8.84-2.77,22-17.71.92-18-25.42,3-42.42,3-42.42" transform="translate(2.74 10.89)"/><path class="cls-4" d="M872.52,993.58s45,3.53,70-.78" transform="translate(2.74 10.89)"/><path class="cls-4" d="M1036.31,856.62c-.81-3.12,9.19,2.88,8.19-28.12-.27-8.24-14.46-48.49-8.23-49.75s28.08,56.66,27.65,77.87c-.42,20.88,53.58,83.88,56.58,82.88" transform="translate(2.74 10.89)"/><path class="cls-4" d="M1092.85,993s-26.35-58.5-32.35-109.5" transform="translate(2.74 10.89)"/><path class="cls-4" d="M1160.12,488s144,98.71,164.7,125.1" transform="translate(2.74 10.89)"/><path class="cls-4" d="M1166.41,460.45S1320.5,563.5,1340.5,588.5" transform="translate(2.74 10.89)"/><path class="cls-4" d="M1307.58,596.5s-15.08,7-25.08,10-57-15-75-15c-12.37,0-31,42-6,64" transform="translate(2.74 10.89)"/><path class="cls-4" d="M1097.85,705.54s-67.26,18-88.81,0" transform="translate(2.74 10.89)"/><path class="cls-4" d="M1107.5,742.5s-94.09,13-97.55,3" transform="translate(2.74 10.89)"/><path class="cls-4" d="M1189.56,670.41a7.5,7.5,0,0,1,4.16,7.88c-2.23,15-9.67,55.47-27.31,75-21.91,24.23-64.08,33.31-58-14.23s2.08-14.54-18.92-43.54,60.45-59.55,83-37A63.1,63.1,0,0,0,1189.56,670.41Z" transform="translate(2.74 10.89)"/><path class="cls-4" d="M1226.93,460.45s91.57,68.05,146.57,72.05c28.79,2.09,65.79,59,65.79,59" transform="translate(2.74 10.89)"/><path class="cls-4" d="M1234.5,384.5s5-10,13.86-5.58" transform="translate(2.74 10.89)"/><path class="cls-4" d="M1316.5,408.5s108.58,57.36,122.79,84.68" transform="translate(2.74 10.89)"/><path class="cls-4" d="M1398.84,652.5s-23.34,32-32.34,37-17.21,15.11-8.11,24.06-140.89-8.06-284.75,322.54" transform="translate(2.74 10.89)"/><path class="cls-4" d="M1439.29,630.25s-41.2-5.17-73.6-4.45a54.69,54.69,0,0,0-22.59,5.5c-9.34,4.51-22.8,10.25-26.6,7.9l-.18-.11a6.73,6.73,0,0,1,.62-11.63c13.29-6.85,45.61-24,37.5-25,3.25.37-8.94-1-14.59-15.74,43.35,1.26,99.65,15.74,99.65,15.74" transform="translate(2.74 10.89)"/><path class="cls-4" d="M1313.27,601.46s-38.86,21.41-59.82,3.23" transform="translate(2.74 10.89)"/><path class="cls-4" d="M1318.93,606.74s-24.39.76-23.91,15.26a61.22,61.22,0,0,0,.9,9.88,12.62,12.62,0,0,1-.58,7.22c-2.12,5.34-1.84,11.4,4.54,13.4s10.58,1.38,13.21.37a3.72,3.72,0,0,1,4.77,2c2.3,5.45,8.24,14.7,22.64,18.32" transform="translate(2.74 10.89)"/><path class="cls-4" d="M1178.92,664c1.58,2.49,94.89-40.31,115.23-54.91" transform="translate(2.74 10.89)"/><path class="cls-4" d="M1295.34,639.1s-82.55,34.34-102.7,45.87" transform="translate(2.74 10.89)"/><path class="cls-4" d="M1329.52,637.19s4.9,11.68,6.94,13.49,3,1.82,6-2.18" transform="translate(2.74 10.89)"/><path class="cls-4" d="M1343.1,631.3s.14,2.35.15,5.89c0,1.28,0,2.72-.06,4.26-.23,7.3-1.15,16.86-4.21,22.66a17.88,17.88,0,0,0-1.08,2.45c-2.19,6.21,7.26,9.54,9.57,3.37,2.52-6.69,4.3-18.93.38-40.66,0,0,17.1-6.84,17.37-27.81" transform="translate(2.74 10.89)"/><path class="cls-4" d="M1216.58,673.21s19.4,8.26,19.66,21.27,7.75,17.41,7.75,17.41,5.08,9.77-13.7,18.19c-12.49,5.59-17.12,18.95-18.82,27.28a60.76,60.76,0,0,1-6.19,16.92c-9.76,17.84-30.5,53.73-38.78,52.22" transform="translate(2.74 10.89)"/><path class="cls-4" d="M1189.14,835.88s-80.49-34.94-103.07-42.16-59.37-44.47-59.37-44.47" transform="translate(2.74 10.89)"/><path class="cls-4" d="M1205.56,678.37c-.5-1.9.71,26.44,7.22,35.19,3,4.1-12.28,52.94-13.28,55.94s-25.77,54.88-39.38,53.94" transform="translate(2.74 10.89)"/><path class="cls-4" d="M1283.36,747.49s69.09-56.12,64.11-77.56" transform="translate(2.74 10.89)"/><path class="cls-4" d="M1409.36,640a19.65,19.65,0,0,0-5.22-7.26,23,23,0,0,0-27.21-2.56c-2.76,1.64-5,3.91-5.32,7-1.11,9.31,31.29,9,35.59,22.66" transform="translate(2.74 10.89)"/><path class="cls-4" d="M1426.28,629c3.79,12.52-3.78,34.47-11.53,40.9-6.27,5.21-9.1,29.86-10.49,40.67a4.22,4.22,0,0,0,4.09,4.75c5.77.13,14.81,1.43,16.15,8.15,2,10-4.56,85.6-30.78,120.8" transform="translate(2.74 10.89)"/><path class="cls-4" d="M1304.46,938.25S1167.25,1052.34,1108.83,1092a37.89,37.89,0,0,1-26.4,6.19l-8.79-1.2" transform="translate(2.74 10.89)"/><path class="cls-4" d="M1439.29,848.73s-92.06-12.9-128.09,0c-15.19,5.44-21.22,20.3-23.47,28.73a20,20,0,0,1-5.52,9.26c-1.45,1.39-2.71,3.09-2.71,4.78,0,4,28,51,58,82" transform="translate(2.74 10.89)"/><path class="cls-4" d="M1439.29,931.25s-38.53-2.25-56.66,7-40.13,24.25-52.13,45.25c-7.59,13.28-13.35,2.12-38.17,86.06,0,0-16.83,52.94,8.17,102.94" transform="translate(2.74 10.89)"/><path class="cls-4" d="M1289.73,1080.39s-57.23,82.11-57.23,101.11" transform="translate(2.74 10.89)"/><path class="cls-4" d="M1439.29,1169.9s-20.79,31.6-37.79,34.6" transform="translate(2.74 10.89)"/><path class="cls-4" d="M1339.5,1192.5c-1.82-3,2.19-10.72,2.49-16.28a28.53,28.53,0,0,0-2.08-12.32c-4.53-11-12.71-33.39-4.44-33.35,11,.06,26-11,30.74-14.28,3.67-2.51,10.77,2.61,13.74,5a.5.5,0,0,0,.79-.53c-1.17-3.82-3.13-12.63,4.76-10.26a21.44,21.44,0,0,1,13.34,11.94s4.66,14.06-2,24.81c-3.59,5.79-23.26,7.45-33.8,55.85" transform="translate(2.74 10.89)"/><path class="cls-4" d="M1212.51,1172.5s-16-22-37-12-60,88-56,141" transform="translate(2.74 10.89)"/><path class="cls-4" d="M1137.8,1215.63s14.7,13.87,22.7,29.87,45,2.26,52-3.87" transform="translate(2.74 10.89)"/><path class="cls-4" d="M1195,1187.2s28.52-29.7,44.52,4.3" transform="translate(2.74 10.89)"/><path class="cls-4" d="M1252.5,1197.5s17.75-4,23.38-18,46.9-11.33,92.76,42.84,70.65,58.3,70.65,58.3" transform="translate(2.74 10.89)"/><path class="cls-4" d="M1439.29,1294.48c-20,1.64-40.76-4.14-57.79-14.54-13.91-8.49-31.76-28.55-49.58-27-31.71,2.82-37.53-13.2-38.57-20.17a3.9,3.9,0,0,0-3-3.23c-1.41-.32-1.53-3.1-3.59-3.09-5.29,0-10.37,3.57-10.37,3.57" transform="translate(2.74 10.89)"/><path class="cls-4" d="M1336.49,1191.5s50.64,18.61,68.82,42.8,34,34.3,34,34.3" transform="translate(2.74 10.89)"/><path class="cls-4" d="M1233.61,1182.24s36.67,0,40.28,1.1" transform="translate(2.74 10.89)"/><path class="cls-4" d="M1291.79,1182.79s31.71,12.71,30.71,38.71" transform="translate(2.74 10.89)"/><path class="cls-4" d="M1225.18,1226.48s-.2-4.31-7.94-4.14c-7.42.15-14.15,10.26-41.1-6.49a10.8,10.8,0,0,0-8-1.38c-2.77.61-5.83,1.26-5.77,1.16,5.15-9.13,2.15-22.13,19.15-28.13,19.69-7,45,19,45,19" transform="translate(2.74 10.89)"/><path class="cls-4" d="M1204.38,1225.4s8.12,19.11,22.12,11.11" transform="translate(2.74 10.89)"/><path class="cls-4" d="M1204.38,1246.28s4,25-25.46,41.1-86.42,30.92-96.92-21.48c-18-90,19.5-81.4,19.5-81.4s16,4,26.4,0,41-19.09,41-19.09" transform="translate(2.74 10.89)"/><path class="cls-4" d="M1082,1265.9s-49,54.12-39.5,140.31c3,27.29,7.38,33.08,7.38,33.08" transform="translate(2.74 10.89)"/><path class="cls-4" d="M1285.5,1317.5s-17,6-28,16" transform="translate(2.74 10.89)"/><path class="cls-4" d="M1168.5,1386.5s-6,31-15,31,29,24,29,24" transform="translate(2.74 10.89)"/><path class="cls-4" d="M1260.32,56.06s76.32-20.28,87.83-22.38" transform="translate(2.74 10.89)"/><path class="cls-4" d="M1383.5,25.5s53.58-12.6,55.79-10.3" transform="translate(2.74 10.89)"/><path class="cls-4" d="M1419.5,121.5s-23,10-32,17" transform="translate(2.74 10.89)"/><path class="cls-4" d="M1282.5,199.5c-3,0-42,21-45,22" transform="translate(2.74 10.89)"/><line class="cls-4" x1="1227.24" y1="240.39" x2="1178.2" y2="257.42"/></g><g id="little_leaves" data-name="little leaves"><path class="cls-4" d="M210.5,714.5c-13,15-6,33-9.32,39.49S194.5,761.5,191,772c4.5,3.5,23.5-13.5,23.5-13.5a81.42,81.42,0,0,0,16-10c12,2,25-13,25-13" transform="translate(2.74 10.89)"/><path class="cls-4" d="M369.5,582.5a36.33,36.33,0,0,0-34,11,217.81,217.81,0,0,0-31,16s-16,10-33,40c-.49.86-33,3.86-45.46,35.58a5.69,5.69,0,0,1-1.5,2.18c-3.72,3.3-4.76,8.44-5,11.82a5.77,5.77,0,0,1-2.82,4.48c-2.77,1.67-6.56,5.92-6.26,16.65a5.73,5.73,0,0,1-.43,2.39c-5.24,12.56,3.21,7.5,7.38,4.5a5.64,5.64,0,0,1,4.36-1c3,.59,8.29.61,11.22-5.25a5.64,5.64,0,0,1,1.75-2.07c8-5.84,19.77-20.33,19.77-20.33" transform="translate(2.74 10.89)"/><path class="cls-4" d="M288.93,680.75c-3.27-6.18,5.59-16.15,16.8-20.16a10.92,10.92,0,0,0,5.6-4.6c8.85-14.5,42.3-7,42.3-7s-.13-26.44,13.75-23.44c.12,0,2.12,8.85,2.12,8.85s25-53.85,46-57.85c-18,44-33,83-29.51,84s14.29-32.08,44.9-40c3.61-4,7.58-3.82,7.58-3.82s-13.28-3.33-33.63.76" transform="translate(2.74 10.89)"/><path class="cls-4" d="M268.63,676.4s-42.8,37.81,8.28,93.46a.28.28,0,0,0,.49-.21c-.58-5.06-1.32-35,3.62-34.61" transform="translate(2.74 10.89)"/><path class="cls-4" d="M318,764.81l1.47,10.84s9-3.24,12-11.2" transform="translate(2.74 10.89)"/><path class="cls-4" d="M339.5,755.77l4.81-16.58a2.62,2.62,0,0,1,2.78-1.86c1.35.13,3.39-1.37,5.92-8.42a.45.45,0,0,1,.85,0c.91,3.85,3.46,15.69,6.64,39.56,11.24-.75,13.5-24,13.92-35.55.2-5.56.68-11.09,1.36-16.61,1.26-10.14,1.09-40,3.72-32.84,4.3,11.66,9.72,18.42,13.27,21.91a8.39,8.39,0,0,0,7.7,2.21l.94-.21a5.91,5.91,0,0,1,6.06,2.31c3.49,4.78,9.1,9,14.92,9.78,0,0,9-3.56,4.13-12.37a41.45,41.45,0,0,1-1.81-3.81c-2.37-5.5-11-20.22-38.21-29.82" transform="translate(2.74 10.89)"/><path class="cls-4" d="M395.51,665.57l-9.25,1.1c-.59.07-.69,1-.61,1.43.47,2.18,5.46,3.29,7.07,3.78a107.17,107.17,0,0,0,10.9,2.58c1.29.25,2.58.48,3.87.71,1.67.29,1.51.17,2.76-.57a7.19,7.19,0,0,1,5.8-.42,32.74,32.74,0,0,1,9.39,4.89,83.3,83.3,0,0,1,8.06,6.44,23.08,23.08,0,0,0,3.75,3c1.42.83,3,1.31,4.45,2.14a5.26,5.26,0,0,1,2.86,3.79,4.07,4.07,0,0,1,2.91,6.66,3.25,3.25,0,0,1,.85,3.75,9.27,9.27,0,0,1-2.51,3.24,4.11,4.11,0,0,1-1.86,1.23c-1.62.37-3-1.21-4.68-1.49s-3.48.9-5.17.45a5.58,5.58,0,0,1-2.61-2l-12.21-14.14c-2-2.36-4-4.74-6.11-7.07-1-1.12-2.58-3.8-4-4.32" transform="translate(2.74 10.89)"/><path class="cls-5" d="M371.1,631" transform="translate(2.74 10.89)"/><path class="cls-4" d="M396.18,625.27c-2.32,2,47.23-39.78,65.2-73.35,9.64-18,22.89-65.77,34.77-89.61,14.35-28.81,7.37-5.11-9.39-9.15a11.87,11.87,0,0,0-8.68,1.14c-13.08,7.46-47.85,29.32-65.51,39.94-10.08,6.07-20.51,14.52-26.52,24.64-9.66,16.25-20.32,41.29-12.25,51.74" transform="translate(2.74 10.89)"/><path class="cls-4" d="M378.65,568.9l-6.93,4.27a4,4,0,0,0-2.27,3.51c-.18,9.93-1.44,43.75,4.35,48.88" transform="translate(2.74 10.89)"/><path class="cls-4" d="M458.14,557.54s15.36-4,25.83,0c2.13.82,8.56-.25,12.29-1a15.87,15.87,0,0,1,5.87,0c11.46,2,51.45,10.07,67.41,25.24,0,0-8,14.74-40,21.74-10,6-34.64,10.57-34.64,10.57" transform="translate(2.74 10.89)"/><path class="cls-4" d="M365.24,581.87s-8.57-5-3.15-11.7c3.77-4.65-20-31.73-34.74-47.74a263.18,263.18,0,0,1-22.1-27.51L280.5,459.5s-.47-3.66,3.27-9.33S321,502,339.5,519.56c21,19.94,31.2,31,31.6,38" transform="translate(2.74 10.89)"/><path class="cls-4" d="M342.16,539H340a20.71,20.71,0,0,0-12.53,4.25c-8.53,6.47-25.72,17.64-31.77,25.63-3.48,4.6,0-7.22,1.42-11.6a.44.44,0,0,0-.72-.44c-7.3,7.18-44,47.68-16.43,79" transform="translate(2.74 10.89)"/><path class="cls-4" d="M345.69,543.18s-5.87,6.72-3.53,8,5.22-1.19,7.28-3.44" transform="translate(2.74 10.89)"/><path class="cls-4" d="M361.51,565.33c-1-.83-31.43,12.63-35.72,31.9" transform="translate(2.74 10.89)"/><path class="cls-4" d="M352.85,568.9s-.39,7,7.13,5.31" transform="translate(2.74 10.89)"/><path class="cls-4" d="M345.52,573.31s2,4.19,10.85,5.22c.13,0-1.18,3.93-1.18,3.93" transform="translate(2.74 10.89)"/><path class="cls-4" d="M370.7,617.4c-.2-.9-7.92,4.34-11.95,2-3.25-1.9-14.93,28.07-14.93,28.07" transform="translate(2.74 10.89)"/><path class="cls-4" d="M392.22,635.89s7.58,1.81,9.93,3.21" transform="translate(2.74 10.89)"/><path class="cls-4" d="M390.26,642s7.32,2.51,8.28,1.51" transform="translate(2.74 10.89)"/><path class="cls-4" d="M379.65,531.25s-5.15-12.75-8.55,2c0,0-17.3-.26-14.72-2.72,2.12-2-.88-4.2-.88-7a18.72,18.72,0,0,0-.33-3.3,6.54,6.54,0,0,1,1.29-5.24c7.09-9.09,32.16-40.17,53-53.46,11-7,12-9,12-9l4.39-3.41a35.81,35.81,0,0,1,8.67-4.94C439,442.37,446,438.6,450.5,431.5c7-11,25.41-15.14,34-18,5.79-1.93-31-2-48.83,2.88-10.46,2.86-42.16,12.06-55.86,21.52-2.92,2-6,4.76-9.17,6.37-10.83,5.48-33.89,19-45.14,39.23-3.07,5.53-3.62,15.47-.31,19.23" transform="translate(2.74 10.89)"/><path class="cls-4" d="M445.61,437.29c5.09-2.12,10.29-5.05,15.73-6.06,2.14-.4,4.32-.54,6.46-.89,8.12-1.35,15.76-5.62,24.17-4.89a.26.26,0,0,1,.17.44c-4.89,4.56-40.61,19.61-39.64,19.61s-60.05,29.56-60.05,29.56" transform="translate(2.74 10.89)"/><path class="cls-4" d="M429.25,418.2s-37.75-10.7-58.75-5.7" transform="translate(2.74 10.89)"/><path class="cls-4" d="M354.51,453.79s-40,11.71-45,15.71-2.3,8.21-2.3,8.21" transform="translate(2.74 10.89)"/><path class="cls-4" d="M324.5,385.5s30-18,49,11c8.78,13.39-7.13,20.49-18.54,20.1-13.58-.48-28.26-10.27-35.46-22.1" transform="translate(2.74 10.89)"/><path class="cls-4" d="M319.5,375.5s9.92-8.36-13-39.4c-12.45-16.84-15.19,1.33-15.8,10.16a29.06,29.06,0,0,0,1,9.95A52.93,52.93,0,0,0,314.5,386.5" transform="translate(2.74 10.89)"/><path class="cls-4" d="M321.63,367.65s13.87-17.18,13.87,1.85c0,10-4.91,13.25-4.91,13.25" transform="translate(2.74 10.89)"/><path class="cls-4" d="M317.87,354.66s4.83-15,1.63-26.16c-2-7-9.15,13.08-9.15,13.08" transform="translate(2.74 10.89)"/><path class="cls-4" d="M292.68,359.32s-7.18,20.18,1.82,39.18" transform="translate(2.74 10.89)"/><path class="cls-4" d="M283.77,450.17s-11.27-6.67-13.89-14.83c-2.46-7.63-.65-13.09,9.39-12.95a6.3,6.3,0,0,0,5-2.34c2.26-2.89-1-4.3,2.22-11.55,4-9,14,1,13-2a1.72,1.72,0,0,1,.42-2,2.22,2.22,0,0,1,3.61,1.74c0,8.72-.37,35.36-6.4,41.53a56.82,56.82,0,0,1-7.68,6" transform="translate(2.74 10.89)"/><path class="cls-4" d="M290.23,404.67s.15-8.17,28.21-20.17" transform="translate(2.74 10.89)"/><path class="cls-4" d="M322.94,392.19s-16.38,7.86-19.41,14.08" transform="translate(2.74 10.89)"/><path class="cls-4" d="M291,366.05s-10.5-.55-17.5,20.45c-1.77,5.32-6.71,10.17-10.72,13.41a10.81,10.81,0,0,1-10.21,1.87c-3-1-6.35-.88-6.27,4.49.2,12.23-7.75,21-20.8,35.23-11,12-8.59,31.19-24.16,15.73,0,0-28.88-26.13-41.84-20.73-11.92,5-5.1,33.6,17.52,41.83a.13.13,0,0,1,0,.26c-2.73.61-16.06,4.67-20.51,26.91-1.47,7.33,3.95,3.92,6.95,1.57q2.76-2.16,5.7-4.07l27.44-17.9a.34.34,0,0,1,.51.4,44.94,44.94,0,0,0-2.6,19c.34,3.69-1.21,8-2.21,10.3a4.09,4.09,0,0,0,.87,4.59c1.92,1.79,5.59,1.4,11.47-13.61a.57.57,0,0,1,1.1.13c1.09,9.95,6.37,47.86,24.77,58.59,12,7,11-6,11-6V535.59a107.26,107.26,0,0,0-1.74-19.43c-2-11.1-6.27-26.87-14.44-35a2.11,2.11,0,0,1,.29-3.17l15.52-11.24" transform="translate(2.74 10.89)"/><path class="cls-4" d="M280.5,459.5c-14.22,13-25.64,13.43-32.58,11.59a13.43,13.43,0,0,1-9.72-10.64c-1.71-9.3,1.06-23.58,38.63-15.5" transform="translate(2.74 10.89)"/><path class="cls-4" d="M194.69,495.49s-22.19,14-29.19,30c-4.5,10.29-.73,9.83,2.53,8.19a16.18,16.18,0,0,0,5-4L194.5,504.5" transform="translate(2.74 10.89)"/><path class="cls-4" d="M208.36,522.26s-12.86,14.24-24.21,12.33c-6.11-1,8.14-19.79,8.14-19.79" transform="translate(2.74 10.89)"/><path class="cls-4" d="M250.75,471.89S234.46,502.51,237.48,506" transform="translate(2.74 10.89)"/><path class="cls-4" d="M257,471.76s.05,16.55,5.12,17.19c4.42.55,4.9-20.1,4.9-20.1" transform="translate(2.74 10.89)"/><path class="cls-4" d="M257.24,477.71S239,510.82,239.76,516.16" transform="translate(2.74 10.89)"/><path class="cls-4" d="M320.18,343.72S347.5,319.5,376,323.61c8.58,1.23-55.44,38.31-55.44,38.31" transform="translate(2.74 10.89)"/><path class="cls-4" d="M327.57,357.85c1.93-2.35,13.92.59,51.93-8.35,17-4-44.71,26.07-44.71,26.07" transform="translate(2.74 10.89)"/><path class="cls-4" d="M301.58,330.81c-1.08-.31-.1-29.73,40.58-53.23,5.34-3.08-2.18,53.23-2.18,53.23" transform="translate(2.74 10.89)"/><path class="cls-4" d="M320.18,294.07s-40.68-3.57-47.68,6.43c-2.36,3.38,23,29.7,23,29.7" transform="translate(2.74 10.89)"/><path class="cls-4" d="M376,401.45S398,400.88,395,404c-.48.5-9.47,7.27-9.47,7.27" transform="translate(2.74 10.89)"/><path class="cls-4" d="M274.94,464.08l-1.12,20.56a16.12,16.12,0,0,1-4.34,10.13l-23.21,24.64a7.4,7.4,0,0,0-1.75,7c.77,2.85,7.95,6.11,6.23,12.57-1.49,5.62-1,12.85-.51,17.09a11.06,11.06,0,0,1-1.32,6.67c-3.12,5.56-9,17.29-7.83,24.67,1,6-.59,10,7.4,9.78.27,0-2,9.27-2,9.27s-2,10.39,2,13.2-11,4,0,14.38,11.18-5.37,9.45-8.52c-4.44-8.06-7.44-61.06,57.54-116.76" transform="translate(2.74 10.89)"/><path class="cls-6" d="M317,510.45s2.94,9.05,1.53,9.05c-3,0-7.46-6.79-7.46-6.79" transform="translate(2.74 10.89)"/><path class="cls-6" d="M308.58,515c-.05-.27.62.64,1.18,1.44a1.34,1.34,0,0,1-.12,1.66c-.47.54-.6,1.49,1.4,2.93,0,0-1.54,5.5,1.46,4.5.73-.24,1.26-1.42,1.59-2.43a1.24,1.24,0,0,1,1.77-.69,17.76,17.76,0,0,0,3,1.27c2.62.85,3.84-6.39,3.84-6.39" transform="translate(2.74 10.89)"/><path class="cls-6" d="M330.49,525.86s-13.6,6.76-15,13.16a8.3,8.3,0,0,1-4.15,5.05,8.57,8.57,0,0,0-3.8,5l-3.19,11.41" transform="translate(2.74 10.89)"/><path class="cls-6" d="M332.68,528.27l-1,3.84a21.94,21.94,0,0,1-4.05,8.07l-5.72,7.19" transform="translate(2.74 10.89)"/><path class="cls-6" d="M336.37,510.45s-1.13-8.22,0-9.58-5.88.94-5.88,4.79S336.37,510.45,336.37,510.45Z" transform="translate(2.74 10.89)"/><path class="cls-6" d="M330,406.34s-17.86,5.55-26.69,12.86" transform="translate(2.74 10.89)"/><path class="cls-6" d="M324.76,401.41s-21.59,12.31-21.42,15.2" transform="translate(2.74 10.89)"/><path class="cls-6" d="M276.93,640.51a29.82,29.82,0,0,0-10.5,0c-2.14.36-6.76,2.57,2.16,9.78" transform="translate(2.74 10.89)"/><path class="cls-4" d="M244.77,625.56s-2.88-10.11-3.83-11.84c-3.44-6.22-13.44-10.22-22.44,8.78-11.11,23.46,16.69,47.14,16.69,47.14" transform="translate(2.74 10.89)"/><path class="cls-4" d="M250.75,635.92S262.48,651.8,262,652.15" transform="translate(2.74 10.89)"/><path class="cls-4" d="M216.48,640.08s-24.09-12.46-26.54-14.52c-2.08-1.75-3.84,4.51-4.31,6.41a.46.46,0,0,0,.4.58,69.4,69.4,0,0,1,32.23,13.58" transform="translate(2.74 10.89)"/><path class="cls-6" d="M212.73,642.33s-11.84,12.17-8.23,12.17c6,0,11.4-2.17,14.7-6.08" transform="translate(2.74 10.89)"/><path class="cls-6" d="M226.47,660.25s-8.63,27.25-4.8,30.75" transform="translate(2.74 10.89)"/><path class="cls-6" d="M226,685.08s2.1-14.94,4.28-20.26" transform="translate(2.74 10.89)"/><path class="cls-6" d="M210.5,713.5s-19.79,7.09-25,19c-7,16,16.7,15.65,16.7,15.65" transform="translate(2.74 10.89)"/><path class="cls-4" d="M186.34,445.23c5.16-2.73,3.16-14.73,3.16-14.73s-52.82-9.53-60.41,13.73,12.24,30,33.82,24.62" transform="translate(2.74 10.89)"/><path class="cls-4" d="M160.05,494.3s-10.82-3.27-21.43,11.16a25.82,25.82,0,0,0-5,17.31,7.28,7.28,0,0,1-4.34,7.27c-5.61,2.38-10.78,7.94-13.71,17.33-4.11,13.13-.74,37.84,38.11,51.65,7.29,2.6-3.09-32.71-8.84-50.83a33.57,33.57,0,0,1,1.24-23.68c2.23-5.07,4.8-8,7.6-8.35,4.78-.66,8.78,1.34,11.78,9.34" transform="translate(2.74 10.89)"/><path class="cls-4" d="M168,533.69s-12.28,23.95,14.6,32.88" transform="translate(2.74 10.89)"/><path class="cls-4" d="M149.38,597.37S42.5,665.5,24.5,680.5" transform="translate(2.74 10.89)"/><path class="cls-4" d="M160.5,602.5c2.53-1.59-136.87,83.92-138,93" transform="translate(2.74 10.89)"/><path class="cls-4" d="M123.87,613.75S94.5,580.5,63.5,609.5" transform="translate(2.74 10.89)"/><path class="cls-4" d="M35.61,597.37c17.1-.12,58.07,36,58.07,36" transform="translate(2.74 10.89)"/><path class="cls-4" d="M86.94,637.73c-4.44-1.23-51.18,1.22-69.31,0" transform="translate(2.74 10.89)"/><path class="cls-4" d="M-1.79,597.37c8.33-1.29,12.92-5.76,15.24-9.07A15.48,15.48,0,0,1,16.57,585a12.62,12.62,0,0,1,8.29-2.61c2.4.08,6.12.11,10.75-.17C47.5,581.5,9.5,653.77,0,669.13" transform="translate(2.74 10.89)"/><path class="cls-4" d="M0,665" transform="translate(2.74 10.89)"/><path class="cls-4" d="M13.74,644.19S42.5,658.77,40,669.13" transform="translate(2.74 10.89)"/><path class="cls-4" d="M0,696.5c2.44-1,76.32-11.5,111.7,42.82,1.67,2.57,3.38,5.11,5.19,7.58,5.77,7.91,17.53,26.57-2.63,23.63-10.14-1.48-17.24-2.48-21.85-3.11a18.51,18.51,0,0,0-10.62,1.8c-3.55,1.73-9.94,3.16-20.29.28" transform="translate(2.74 10.89)"/><path class="cls-4" d="M0,739c16.32.82,32.87,7.72,46,17.09a97.9,97.9,0,0,1,27.06,29.6,119.33,119.33,0,0,1,10.12,21.89,62.94,62.94,0,0,1,2.93,27.85c-.67,5.88-1.22,12.08-3.69,17.57-2.86,6.36-8.07,11.3-13.16,16.06-1.91,1.79-4,3.65-6.51,4.19-13.6,2.88-11.33-26.24-13-33.43C48,831.8,41.42,819.72,33.3,816.34c-3.25-1.35-6.94-1.05-10.4-.4A29.69,29.69,0,0,0,11,820.51c-3,2.18-6.41,7.54-10.9,4.85" transform="translate(2.74 10.89)"/><path class="cls-4" d="M123.87,581.26l-7.27,6.19s-2.8,6.48,27.55,13.27" transform="translate(2.74 10.89)"/><path class="cls-4" d="M69.47,660.25s55.79,3.94,70.41,66.59a98.35,98.35,0,0,0,9.5,18.61" transform="translate(2.74 10.89)"/><path class="cls-4" d="M47.71,675s-5.79,15.51,0,23" transform="translate(2.74 10.89)"/><path class="cls-4" d="M109.43,634.42s33.47,1.07,34.72,56.58c.35,15.5-5.8,30-5.8,30" transform="translate(2.74 10.89)"/><path class="cls-4" d="M144.15,691s29.09-4.42,50.54,4.5c2.7,1.12-1.45,7.53-5.6,12.92a99.77,99.77,0,0,1-12.54,13.45c-7.94,7.11-21.81,18.43-30,18.92" transform="translate(2.74 10.89)"/><path class="cls-4" d="M116.89,746.9s43.61-11.4,77.8,15.27" transform="translate(2.74 10.89)"/><path class="cls-4" d="M76,790.85s22.6,16.67,29.3,9.92a15.55,15.55,0,0,0,3.44-5,5.38,5.38,0,0,1,6.6-3c9.41,2.94,27.46,8.33,34.07,8.52" transform="translate(2.74 10.89)"/><path class="cls-4" d="M93.52,800.77s1,40.73,12,51.73,7.18,21,7.18,21-26.77-11.35-28-27.67" transform="translate(2.74 10.89)"/><path class="cls-4" d="M99,865.68s-22.9-1-29.71,3.42" transform="translate(2.74 10.89)"/><path class="cls-4" d="M55.47,870.58s-35,13.92-45,32.92" transform="translate(2.74 10.89)"/><path class="cls-4" d="M0,898.08S26.5,910.5,36.5,919.5c0,0,113-21,125-22S138.85,866,112.68,864.25" transform="translate(2.74 10.89)"/><path class="cls-4" d="M36.5,919.5s-9,15.37-36.5,21.19" transform="translate(2.74 10.89)"/><path class="cls-4" d="M10.5,937.74S42.86,982,84.71,995.16c13.79,4.34,56.79,34.34,56.79,34.34s-34,9-71,3" transform="translate(2.74 10.89)"/><path class="cls-4" d="M58.5,1030.5c5.29,2.27-59-27.16-58.5-50.44" transform="translate(2.74 10.89)"/><path class="cls-4" d="M38.5,1127.5s-1.87-7.4,19.65-41.34a38.65,38.65,0,0,0,4-8.18c12.92-37.45,7.18-61.79,7.18-61.79s-8.62-1.65-35.46,81.86c-.42,1.3-.87,2.58-1.34,3.85a26.18,26.18,0,0,0,.48,18.83" transform="translate(2.74 10.89)"/><path class="cls-4" d="M43.34,1133.52s-12.84-17-19.84-23c-1.7-1.46,2-26,4-36,.88-4.39-10-11-12-4-1.65,5.76-.58,16.58-.15,20.23a.74.74,0,0,1-1,.78c-2.08-.65-6.19-.79-3.89,9.51,1,4.48-10.5-7.26-10.5-7.26" transform="translate(2.74 10.89)"/><path class="cls-4" d="M0,1115.85c1.87.49,5.69-.24,7.5-.64a.52.52,0,0,1,.59.72l-1.81,4.14a.47.47,0,0,0,.62.65c2-1,7.72-3.51,11.35-3,0,0,7.25.76,14.25,13.76" transform="translate(2.74 10.89)"/><path class="cls-4" d="M30.09,1127.5s-10.59-5-30.09,0" transform="translate(2.74 10.89)"/><path class="cls-4" d="M32.5,1135.29c-7-5.79-29.51,13.21-30.13,25.29a34.31,34.31,0,0,0,4.87,19.24c2,3.35,4.59,9.69-1.17,10.65a13.26,13.26,0,0,1-6.07-.71" transform="translate(2.74 10.89)"/><path class="cls-4" d="M10.65,1145.4S54,1129,73.87,1120.85c10.63-4.35,21.23-4,31.63-.85,7.5,2.25,13.5,6,15,10.5,0,0,2,12.11-12,9-9-2-23,17-25,23-1.26,3.79-16,21-44,31l-41,13" transform="translate(2.74 10.89)"/><path class="cls-4" d="M88.81,1117.65s8.52-8.89,19.6-12.93a21.43,21.43,0,0,1,7.32-1.22h10.11a1.75,1.75,0,0,1,1.74,2c-.45,3.44-2.83,10.83-14.37,17.68" transform="translate(2.74 10.89)"/><path class="cls-4" d="M79.5,1199.5c-1,0-36-11-51,12-20,11-28,25-28.5,27" transform="translate(2.74 10.89)"/><path class="cls-4" d="M84.5,1202.5s-4.09,15.87-12,25c-13,15-19,55-72.5,70" transform="translate(2.74 10.89)"/><line class="cls-4" x1="67.7" y1="1191.48" x2="78.45" y2="1209.53"/><path class="cls-4" d="M70.57,1176.44c.93-.94,6.93,12,13.93,18.54" transform="translate(2.74 10.89)"/><path class="cls-4" d="M79.5,1268.69s29-33.19,32-56.19c1.23-9.41,1.18-13.44-15.91-4.22s-30.17,36-30.63,56.09" transform="translate(2.74 10.89)"/><path class="cls-4" d="M84.5,1198.64s9-24.14,14-30.14,7.94-6.1,7.94-6.1,9.28,3,11.86,18.12a57.89,57.89,0,0,1,.33,12.88,1.27,1.27,0,0,0,2,1.1c2.07-1.55,4.47-1.67,2.68,8.57-1.74,9.9-7.5,27.85-13.31,42.87-2.53,6.56.94,11.83-5.8,15.19s-14.84-.69-17.28-1.66" transform="translate(2.74 10.89)"/><path class="cls-4" d="M68,1268.69s-17.21-3.82-21.34,0" transform="translate(2.74 10.89)"/><path class="cls-4" d="M25.07,1287s30.85,11.15,50.64-12.15" transform="translate(2.74 10.89)"/><path class="cls-4" d="M109.07,1250s36.43,4.53,37.28,17c.64,9.49-47.85,1.51-64.85,9.51" transform="translate(2.74 10.89)"/><path class="cls-4" d="M91.06,1273.86s-25.89,28.93-20.73,42.29" transform="translate(2.74 10.89)"/><path class="cls-4" d="M108.2,1272.52s2.51,33.82-3,38.08" transform="translate(2.74 10.89)"/><path class="cls-4" d="M14.5,1342.5s28-35,129.33-32.9c7.67.15,2.52,10.14,2.52,10.14s-25.77,47.76-96,60c-17.86,3.1-26.47-6.93-29-10.74a7.1,7.1,0,0,0-4.55-3.07,4.41,4.41,0,0,0-3.3.59,116,116,0,0,1-14.5,7" transform="translate(2.74 10.89)"/><path class="cls-4" d="M13.5,1359.5s-1.29-3.76-8-6a24.56,24.56,0,0,1-6.5-4" transform="translate(2.74 10.89)"/><path class="cls-4" d="M30.89,1377.31S66.5,1424.5,73.5,1429.5" transform="translate(2.74 10.89)"/><path class="cls-4" d="M43.79,1380.28c.66.21,20.43,30.65,32.55,38.81a4.59,4.59,0,0,0,4.69.26c9.48-4.87,47.76-23.33,76.47-19.85,0,0,31.4-27.59,45-29.88a1.26,1.26,0,0,1,1.37.75c6.73,16.85-10.44,54.28-31.93,57a55.89,55.89,0,0,0-6,1c-4.08,1-10.43,2.5-12.41,3.16" transform="translate(2.74 10.89)"/><path class="cls-4" d="M55.64,1408.87s-24.85-13-38.14-18.37A30.71,30.71,0,0,1,3.8,1379a.69.69,0,0,0-1.27.31c-.85,7.15-2.62,31.93,11,45.83,16,16.37,44,16.37,55,.37" transform="translate(2.74 10.89)"/><path class="cls-4" d="M0,1301.63c-.5-.13,8.5,35.87,17.5,44.87" transform="translate(2.74 10.89)"/><path class="cls-4" d="M13.5,1351.79s-16-15.16-14.5-27.73" transform="translate(2.74 10.89)"/><path class="cls-4" d="M71.85,1428.08a10.47,10.47,0,0,0,0,11.21" transform="translate(2.74 10.89)"/><path class="cls-4" d="M110.5,1439.5s44-14,47-40" transform="translate(2.74 10.89)"/><path class="cls-4" d="M132.67,1429.37s-1.81,8.71,4.51,10.92" transform="translate(2.74 10.89)"/><path class="cls-4" d="M109.65,1164.26s19.56-24.31,36.7-23" transform="translate(2.74 10.89)"/><path class="cls-4" d="M131.79,1206.5c1.71,0,2.73-10.73,12.22-7.86" transform="translate(2.74 10.89)"/><path class="cls-4" d="M251.37,1199.85s13.13,26.65,47.13,29.65c8-8,5.15-12.83,5.15-12.83" transform="translate(2.74 10.89)"/><path class="cls-4" d="M250.5,1297.5c-1,0-11.37-17-13-30-3-24,10.5-55.54,15.25-65.27" transform="translate(2.74 10.89)"/><path class="cls-4" d="M275.4,1222.9s-1.9,8.6,4.1,21.6,4,40-1,62" transform="translate(2.74 10.89)"/><path class="cls-4" d="M244.91,1315.52s-.23-21.17,1.18-24.59" transform="translate(2.74 10.89)"/><path class="cls-4" d="M238.25,1246.55s-16.75,25-15.75,50c-1,16,12,24,12,24" transform="translate(2.74 10.89)"/><path class="cls-4" d="M274.5,1314.5s6,2,8-1-13-17-27-24c-5-1.25-5.36,3.19-4.93,6.69.31,2.52.53,5,.59,7.59a26,26,0,0,0,9,19.2,7.14,7.14,0,0,0,9.39.12,15.76,15.76,0,0,0,3.91-5.6" transform="translate(2.74 10.89)"/><path class="cls-4" d="M282.5,1313.5s6.21-3,8.11-16c.14-1,4.94-12.15,5.89-15l1.24-3.71a50.81,50.81,0,0,1,2.92-7.13,9,9,0,0,0,.93-2.88,1,1,0,0,0-1.66-.93c-1.59,1.25-3.64,2.44-2.43-.87,2-5.48,0-4.48,0-4.48l-3.3,2.47a1.19,1.19,0,0,1-1.38.06c-1.18-.74-3.48-2-3.93-.33a3.44,3.44,0,0,1-2.68,2,1.53,1.53,0,0,0-1.13,1.84c1.08,4.46,3.76,17.1.85,22.35-2,3.64-1.24,5.59-.19,6.59a3.13,3.13,0,0,1,.76,3.49c-1.33,3.19-3.74,8.29-5.47,8.37" transform="translate(2.74 10.89)"/><path class="cls-4" d="M529.5,437.5s-27,8-6,43c3,5,11.75-43,11.75-43" transform="translate(2.74 10.89)"/><path class="cls-4" d="M527.5,434.5s-23.58-23.95-6-34c7-4,19,28,18,32" transform="translate(2.74 10.89)"/><path class="cls-4" d="M537.53,423.52s13,0,13,15c0,5-16.52,5.7-16.52,5.7" transform="translate(2.74 10.89)"/><path class="cls-4" d="M520.29,425.37s-38.29-5.63-54.54,36.25" transform="translate(2.74 10.89)"/><path class="cls-4" d="M519.41,472.76s-12.33,19-38.62,28.38" transform="translate(2.74 10.89)"/><path class="cls-4" d="M498.37,492.46s19.13,7,31.75,7.5c5.58.2,10.1.13,12.39.06a.39.39,0,0,1,.19.73l-14.2,7.75s-7.37,12.56-26.19,12.78c-12.93.15-19.31,4.45-20.78,7.74a9.29,9.29,0,0,1-4.15,4.34c-3.5,1.85-8.71,4.79-10.72,6.88" transform="translate(2.74 10.89)"/><path class="cls-4" d="M336.5,279.5c-17.3-.82-49.91,11.51-60.16,16.22-3.32,1.54-8.18,2.72-11.52,1.2S259,292.5,261.5,286.5c22.54-54.09,67.07-22.4,67.07-22.4" transform="translate(2.74 10.89)"/><path class="cls-4" d="M332.5,248.48s18-54,77-50" transform="translate(2.74 10.89)"/><path class="cls-4" d="M391.5,225.5c1-1,13-16,20-19" transform="translate(2.74 10.89)"/><path class="cls-4" d="M365.5,314.5s29-46,26-108c0,0-40-5-39.8,86.95" transform="translate(2.74 10.89)"/><path class="cls-4" d="M354.64,253.87S341.5,265.5,338.5,270.5" transform="translate(2.74 10.89)"/><path class="cls-4" d="M326.5,222.5s38.43-43.22,41-49c4-9-8-12-19-6s-32,27-32,35" transform="translate(2.74 10.89)"/><path class="cls-4" d="M310.5,211.5s-22-27.14-57,4c-4.68,4.16-1.79,9.13,2.06,12.94,6.32,6.26,16.82,5.92,22.3-1.08.22-.27.43-.56.64-.86,7-10,32-3,36,0" transform="translate(2.74 10.89)"/><path class="cls-4" d="M302.5,167.5s-12-17-41-20c-16.91-1.75-38.95,22.37-37,26,7,13,27,30,72,2" transform="translate(2.74 10.89)"/><path class="cls-4" d="M382.46,349.13s48.05-34.31,52.2-37.3c1.84-1.33-21.16-7.33-61.48,11.31" transform="translate(2.74 10.89)"/><path class="cls-4" d="M359.21,363.29s56.39,6.46,61.83,8.35c2.46.86-59.47,12.86-59.47,12.86" transform="translate(2.74 10.89)"/><path class="cls-4" d="M297,111.2s-35.4-25.3-64.45,0c-17.43,15.18-12.2,25.18-5.22,30.75a27.1,27.1,0,0,0,20.88,5.45c9.83-1.46,25.59-7.11,44-25.95" transform="translate(2.74 10.89)"/><path class="cls-4" d="M308.35,123.83s6.51-.77,8.33-11.55c1.17-6.92,15.3-10,25.26-11.38a32.19,32.19,0,0,0,24.2-16.46c3.7-6.93,5-15.63-1.64-24.94-2.76-3.87-7.36,0-10.92,4.19a31.7,31.7,0,0,1-14,9.54c-10,3.42-25.41,10.77-29.26,24.49" transform="translate(2.74 10.89)"/><path class="cls-4" d="M296.26,55.65S263.5,24.5,224.38,40.55c-20.87,8.56-11.88,32-11.88,32s10,31,36,21S265.43,76.3,290,57.9" transform="translate(2.74 10.89)"/><path class="cls-4" d="M333.5,26.22c0,.28-14.53,8.11-20.26,26.2,0,0,18.26-7.47,19.26-23.2s71-16.84,83-10.78" transform="translate(2.74 10.89)"/><path class="cls-4" d="M311.5,64.5s6-12,27-9,20.17,3.4,20.17,3.4" transform="translate(2.74 10.89)"/><path class="cls-4" d="M364.5,59.5s35.18,6,36.59,5" transform="translate(2.74 10.89)"/><path class="cls-4" d="M270.5-.5c0,1-25,32-41,30s-15-17-15-17S213.52,3.44,216,0" transform="translate(2.74 10.89)"/><path class="cls-4" d="M310.35,156.24s16.51-40.08,62.83-36.41" transform="translate(2.74 10.89)"/><path class="cls-4" d="M313.5,175.25s69-17.75,73-48.75" transform="translate(2.74 10.89)"/><path class="cls-4" d="M306.12-.5s-3.75,40.36-7,68.36a266.53,266.53,0,0,0-1.58,42.46c1.76,41,9.17,120.82,39.63,170.33" transform="translate(2.74 10.89)"/><path class="cls-4" d="M320.18-.5S309,61.16,308.12,68.87c-4.43,38.88,4.2,126.58,11.95,147.3a7.48,7.48,0,0,0,3.72,3.82c1,.52,3.71.51,3.78,15.93.07,17.69,14.59,41.66,14.59,41.66" transform="translate(2.74 10.89)"/><path class="cls-4" d="M343.39,299.18s11.53,11.6,15.82,24" transform="translate(2.74 10.89)"/><path class="cls-4" d="M344.08,286.28s24.82,31.5,25.12,36.86" transform="translate(2.74 10.89)"/><path class="cls-4" d="M647.46,390.63s-7,21.87,0,43.87" transform="translate(2.74 10.89)"/><path class="cls-4" d="M663.24,418.2s.75,2,0,7.17" transform="translate(2.74 10.89)"/><path class="cls-4" d="M666.62,423.52S649.11,433.57,642.35,438a.77.77,0,0,1-1.15-.42c-.86-2.77-3.49-10.63-5.84-12.16-2.64-1.73-9.13.48-5.23,14.33a2.53,2.53,0,0,1-2.51,3.2c-10.37-.39-38.27,5.55-27.12,83.6,5,35,17,38,17,38s13-114,22.69-109.51c10.25,4.75,8.13-4.15,6.59-8.55A2.88,2.88,0,0,1,648.1,443c5.7-3.19,20.68-11.44,23.23-11.45" transform="translate(2.74 10.89)"/><path class="cls-4" d="M678.91,444.2s-12.27,17.57,7.59,57.3c2,4,16.47-18.36,16.47-18.36" transform="translate(2.74 10.89)"/><path class="cls-4" d="M718.34,506.94S708.5,532.5,703,527.7c-19.41-16.85-13.91-26.64-13.91-26.64" transform="translate(2.74 10.89)"/><path class="cls-4" d="M699.33,524.34s2.17,19.16,7.17,22.16,15.71-13.52,14.36-35.76" transform="translate(2.74 10.89)"/><path class="cls-4" d="M716,538.14a32,32,0,0,0,6.46,3.36c3,1-3.82-10.36-3.82-10.36" transform="translate(2.74 10.89)"/><path class="cls-4" d="M634.62,463.05s36.88,22.45,40.54,68.09c1.23,15.31-5.66,31.36-5.66,31.36s-24-7-31-18" transform="translate(2.74 10.89)"/><path class="cls-4" d="M627.86,492.46s10.64,49,14.64,74c1.46,9.1-25.21-4-25.21-4" transform="translate(2.74 10.89)"/><path class="cls-4" d="M247.5,969.5c1.92,1.92-45-104.35-55.67-105.25-4.75-.41-4.87-7.66-10.29-11.47" transform="translate(2.74 10.89)"/><path class="cls-4" d="M177.67,852.78s-6.24,28.79-7.68,50.72c-3.49,53,42.51,85,61.51,89" transform="translate(2.74 10.89)"/><path class="cls-4" d="M254.5,979.5s-2.17-10-10.08-10-9.92-17-37.92-12c-12.07,2.16,32.75,34.44,40.79,40.14a3.75,3.75,0,0,1,1.57,2.59,8.64,8.64,0,0,1-2.41,7.65" transform="translate(2.74 10.89)"/><path class="cls-4" d="M257.5,1005.5s-24.06-3.88-14,29.06,37,44.94,69,44.94c29,0-10-48-10-48l-24.6-29.83a15.33,15.33,0,0,0-10-5.6C263.52,995.56,258.56,997,257.5,1005.5Z" transform="translate(2.74 10.89)"/><path class="cls-4" d="M226.5,1048.5s-22.81-43.21-42-60c-8-7-21.74-20.71-23.41-19,0,0-5.59,46-3.59,55s6,24,23,30,36,8,41,6" transform="translate(2.74 10.89)"/><path class="cls-4" d="M187.71,1056.78s-12.21,53.72,27.79,62.72" transform="translate(2.74 10.89)"/><path class="cls-4" d="M218,1062.25c-2.72-2.36,4.93,2,2.7,16.25" transform="translate(2.74 10.89)"/><path class="cls-4" d="M200.73,1112.69s-14.66,38-8.95,43.93" transform="translate(2.74 10.89)"/><path class="cls-4" d="M225.39,1155.44c-22.1-96.07,11.68-94.19,11.68-94.19s8-18.64,32.22,14.81,34.41,54.24,32.31,84.34" transform="translate(2.74 10.89)"/><path class="cls-4" d="M235.5,1327.5s-6,27,26,48" transform="translate(2.74 10.89)"/><path class="cls-4" d="M252.75,1312.19s-27.36,10.47-30.3,17.89" transform="translate(2.74 10.89)"/><path class="cls-4" d="M257.71,1320.5s-16.21,0-32.21,14" transform="translate(2.74 10.89)"/><path class="cls-4" d="M252.27,1321.14s2.44,4.36,3.34,6.36" transform="translate(2.74 10.89)"/><path class="cls-4" d="M260.2,1323s-16.88,11.85,2.3,55.37c8,18.15,39.1,23.46,39.1,23.46s3.9-4.31-7.1-18.31-9-47-9-47" transform="translate(2.74 10.89)"/><path class="cls-4" d="M277.8,1317.4s-3.94,5.19,4.88,15.64,25.85,15.59,31.82,2.46c5-11-24-27.61-28-23.31" transform="translate(2.74 10.89)"/><path class="cls-4" d="M219.25,1184.29s-13.55,32.71,23.35,44" transform="translate(2.74 10.89)"/><path class="cls-4" d="M347.5,885.5s-51.56-21.15-65.78,44.93" transform="translate(2.74 10.89)"/><path class="cls-4" d="M348.5,892.5s-38,36-44,37-18.94,21.4-18.94,21.4" transform="translate(2.74 10.89)"/><path class="cls-4" d="M317.87,861.44s-8.76,10.28-4.56,23.67" transform="translate(2.74 10.89)"/><path class="cls-4" d="M345.22,884.71c1.28-.21,5.28-11.21,9.28-16.21,3.64-4.55,15.21-12.1,15.21-12.1" transform="translate(2.74 10.89)"/><path class="cls-4" d="M355.84,867s10.2-.11,13.87-1.31c6.79-2.22,10.54-10.85,10.54-10.85" transform="translate(2.74 10.89)"/><path class="cls-4" d="M387,853.79S375.5,870.5,377.5,872.5" transform="translate(2.74 10.89)"/><path class="cls-4" d="M343.5,920.5s-7.48-17.44,10-34c20.89-19.8,52.87-17.68,73-16,12,1,7,8,7,8l-10.82,20.74a28.59,28.59,0,0,1-3.91,5.71c-5.91,6.72-21.87,21.47-52.27,27.55" transform="translate(2.74 10.89)"/><path class="cls-4" d="M340.5,929.5s-3-11.92,9-7.8c14,4.8,22.16,11.94,27,37.8,2.21,11.8-18.4,5.11-29.39.79a16.2,16.2,0,0,1-9.46-10.1c-1.67-5.13-2.95-11.45-.15-13.69" transform="translate(2.74 10.89)"/><path class="cls-4" d="M340.16,926.66s-12.9-12.76-24.28-5" transform="translate(2.74 10.89)"/><path class="cls-4" d="M335.86,939.61s-18.36,1.89-25.36-4.11c-4.3-3.68-3.18-7.36-3.18-7.36" transform="translate(2.74 10.89)"/><path class="cls-4" d="M321.52,939.43l-5.25,10.68a.29.29,0,0,0,.37.39c1.06-.48,2.86-1,2.86,1s4-3.08,4,3c0,1.81,4.12-.49,4.13,2.81a3,3,0,0,0,.8,2,4.14,4.14,0,0,1,1.07,4.18c-.71,2.12,9.69-11.53,7.85-14.26" transform="translate(2.74 10.89)"/><path class="cls-4" d="M316.64,950.5S324,959,329.73,963.72" transform="translate(2.74 10.89)"/><path class="cls-4" d="M317.82,938.77s-15.2,12.5-21.9,27.36c-1.4,3.1-4,3.08-5.94,2.5a4.63,4.63,0,0,0-5.45,2.36c-1,2-1.33,4.74,1,7.9" transform="translate(2.74 10.89)"/><path class="cls-4" d="M326.33,960.68s-.83,5.82-26.83,13.82" transform="translate(2.74 10.89)"/><path class="cls-4" d="M283.77,976.73s-22,17.27-21.15,20" transform="translate(2.74 10.89)"/><path class="cls-4" d="M285.56,981.4s-17.2,14.24-17.63,14.67" transform="translate(2.74 10.89)"/><path class="cls-4" d="M254.5,1005.38c.93-.82,4.55-8.34,4.23-17.11a3.63,3.63,0,0,1,2.06-3.46,28.54,28.54,0,0,1,8.71-2.31c8-1,22.33-41.29,16-50-8-11-40,24-33,42" transform="translate(2.74 10.89)"/><path class="cls-4" d="M241,1021.85s-12.53,21.34-14.53,45" transform="translate(2.74 10.89)"/><path class="cls-4" d="M243.47,1034.56s-8.83,20.44-6.4,26.69" transform="translate(2.74 10.89)"/><path class="cls-4" d="M233.61,991.75a2.58,2.58,0,0,0-3,1.41,12.44,12.44,0,0,0-1.19,7.66,4.39,4.39,0,0,0,3,3.48,6.1,6.1,0,0,0,7.6-6.26C239.61,994.43,236.43,992.42,233.61,991.75Z" transform="translate(2.74 10.89)"/><path class="cls-4" d="M230.34,1002.81s-5.74.44-5.79,2.57,6.95,4.12,6.95,4.12,4.23.82,1.11,30.91" transform="translate(2.74 10.89)"/><path class="cls-4" d="M237.66,1003.25s5.78-2.25,5.81,0-.85,3.07-3.41,5.66-1.4,17.36-1.4,17.36" transform="translate(2.74 10.89)"/><path class="cls-4" d="M239.49,996.07a49,49,0,0,1,7.8,1.57" transform="translate(2.74 10.89)"/><path class="cls-4" d="M331.06,962.09s-3.56,32.41-28.56,69.41" transform="translate(2.74 10.89)"/><path class="cls-4" d="M303.18,973.33s-7.84,11.56-6.36,15.41c.68,1.76-2.32-2.24-8.32-4.24-2.85-1-8.1-.77-12.05,15.62" transform="translate(2.74 10.89)"/><path class="cls-4" d="M416.48,907.4a62.15,62.15,0,0,1,9,20.1c3,12,.54,9,3.77,16s-38.67,9.76-55.72-12.61" transform="translate(2.74 10.89)"/><path class="cls-4" d="M259,1439.29s-3.48-33.79-10.7-44c-4.37-6.15-11.21-27.51-11.21-27.51s-13.28-2.5-16.57,38.67c-2,25,5,32.79,5,32.79" transform="translate(2.74 10.89)"/><path class="cls-4" d="M279.16,1439.5s23.19-45,53.34-45h4.94a1,1,0,0,1,.95,1c0,2.43,0,8.82,0,11.21.11,8.84-9.23,25.84-14.56,32.84" transform="translate(2.74 10.89)"/><path class="cls-4" d="M643.41,774S624.5,815.5,590.5,815.5c-16.12,0-39,22-59.7-2.25" transform="translate(2.74 10.89)"/><path class="cls-4" d="M590.5,832.5s-11,8-2.39,23.58c1.93,3.5,6.13,5.1,9.35,5.82a22.37,22.37,0,0,1,8.9,4.28c5.9,4.64,15.73,12.27,19.14,14.32,4.42,2.65,13.52-.29,16.75-1.48a1.12,1.12,0,0,0,.61-1.54,130.09,130.09,0,0,1-6.26-15c-3.1-9-17.1-37-40.1-37" transform="translate(2.74 10.89)"/><path class="cls-4" d="M593.39,860.57s.11,22.93,2.11,30.93" transform="translate(2.74 10.89)"/><path class="cls-4" d="M597.46,861.9s.4,21.6,3.72,29.6" transform="translate(2.74 10.89)"/><path class="cls-4" d="M594.45,884.55a28.89,28.89,0,0,1-4-5c-1-2-12.34-18.21-29.67-14.61" transform="translate(2.74 10.89)"/><path class="cls-4" d="M566.27,893c7.77,4.46,14.23,3.54,18.55-1.46,5.47-6.34,9.63,3.07,9.63,3.07s8.26,24.66,15,37.23a1.54,1.54,0,0,1-1.14,2.26c-8.1,1.06-35.58,4.74-39.83,6.44-4.81,1.92,17.94,14.26,42.46,6.19a14.8,14.8,0,0,1,5.64-.74c4.54.33,13.43,0,15.9-7.45,1-3,44.73-6,44.73-6" transform="translate(2.74 10.89)"/><path class="cls-4" d="M599.38,884.55c2.12-1,4.27-13.1,11.19-15.08" transform="translate(2.74 10.89)"/><path class="cls-4" d="M639.24,869.47s15.24,7.14,18.75,15.08c3.41,7.72-19.16,23-52,17a1.7,1.7,0,0,0-1.89,2.3c2.21,5.51,9.44,22.62,20.44,22.62,0,0,34,1,52.73-1.84" transform="translate(2.74 10.89)"/><path class="cls-4" d="M572.6,820.25c.9.25,5.11,10,14.51,7.63" transform="translate(2.74 10.89)"/><path class="cls-4" d="M593.39,815.4s-.11,6.39,0,9.24" transform="translate(2.74 10.89)"/><path class="cls-4" d="M663.24,316.49c1.75-10,20.26-18,32.86-9.09s16,18.18,16,18.18-3.25-7-2.7-11c2-15.06-3.28-15.25,2.7-17.58,6.35-2.48,13.35,11.52,9.5,21.11,0,0,23.85-42.59,43-41.65" transform="translate(2.74 10.89)"/><path class="cls-4" d="M710.15,356.35a67.12,67.12,0,0,0,2.56-13.4,9.94,9.94,0,0,0-7.51-10.46c-9.26-2.33-24.11-5.67-28-4.19" transform="translate(2.74 10.89)"/><path class="cls-4" d="M686.7,303.76s3.48-11.6,1.64-15.93S675.16,305,675.16,305" transform="translate(2.74 10.89)"/><path class="cls-4" d="M753.5,318.5s-16,12-29,18c-6.36,2.93-9.58,24.4-9.58,24.4" transform="translate(2.74 10.89)"/><path class="cls-4" d="M707.54,333.4s5,12.27,4,17.68" transform="translate(2.74 10.89)"/><path class="cls-4" d="M715.76,356.35s22.74-8.85,26.74,18.15c2,11-7.32,7-7.32,7" transform="translate(2.74 10.89)"/><path class="cls-4" d="M769.81,287.26S743.69,317.9,748.6,365.2" transform="translate(2.74 10.89)"/><path class="cls-4" d="M753.5,376.66S740,379.3,750.75,360.9s30.85-8.4,30.85-8.4c3.09-11,8.9-45,8.9-45" transform="translate(2.74 10.89)"/><path class="cls-4" d="M805.5,310.5s-5.78,7-22.39-9.49-20.87-29.74-21.93-37.6a136.77,136.77,0,0,1-.39-31.44,12.24,12.24,0,0,1,6.79-9.78c7.13-3.48,18.19-3.87,26.92,22.31,6,18,18.12,20.85,14.06,33.93" transform="translate(2.74 10.89)"/><path class="cls-4" d="M812.6,291s-17.4,47.69-26.25,60.1" transform="translate(2.74 10.89)"/><path class="cls-4" d="M818.5,297.5l-4.45,12.91a8.94,8.94,0,0,1-4.69,5.15c-3,1.41-5.74,4.76,3.24,12.38,7.09,6,14.41,1.36,17.09-.79a1.32,1.32,0,0,1,2,.36,9.7,9.7,0,0,1,.89,8.48c-2,5.51,5-4.49,7-4.49s3.12,8.4,4.56,10.74c3.13,5.12,14,4.14,20.14,3.12a6.08,6.08,0,0,0,5-5.1c1.94-13,.36-18.93.36-18.93" transform="translate(2.74 10.89)"/><path class="cls-4" d="M808.43,322.89s-13.13,25.78-14.53,26.19" transform="translate(2.74 10.89)"/><path class="cls-4" d="M813.6,347.52c-.1,0-27.1,0-38.4,8.83-15,11.74-30.14,29.72-33.42,32.44" transform="translate(2.74 10.89)"/><path class="cls-4" d="M819.65,330.89s-10,23-7,34.31" transform="translate(2.74 10.89)"/><path class="cls-4" d="M848.22,345.24s-17.46,20.56-14.59,22.91" transform="translate(2.74 10.89)"/><path class="cls-4" d="M755.11,403.75c1.39.75,30.1-41.85,60.75-37.55,20.43,2.87,23.61,3.6,23.46,3.76-.69.79-1.7,1.21-2.23,2.12-2,3.46-3.59,7.42-6,12.75-7.34,16.36-47,50.27-49.82,51.47" transform="translate(2.74 10.89)"/><path class="cls-4" d="M833.31,379.83s2.19,16.67,10.39,21.27c6.91,3.88,7.5,28.47,7.54,34.07a1.51,1.51,0,0,1-1.09,1.47c-4,1.15-17.85,4.36-24.65-4.14-8-10-16-21.16-16-21.16" transform="translate(2.74 10.89)"/><path class="cls-4" d="M821.06,217.89c.44-4.39.44-11.39-3.56-17.39a40.3,40.3,0,0,0-7.06-7.95,5.38,5.38,0,0,0-7.06,0c-2.17,1.91-4.53,5.87-5.88,14-3,18,3.67,18.95,3.67,18.95" transform="translate(2.74 10.89)"/><path class="cls-4" d="M782.49,223.65a46.66,46.66,0,0,1,4.61-10.43,6.08,6.08,0,0,0,.26-6.28c-2.07-3.76-1.8-6.72-1-10.07,6.15-26.37,20.15-24.37,20.14-38.48,0-6,9.4-32.74,22-35.89,3-.75,5.41,2.4,6.45,4a.76.76,0,0,0,1.23.07c2.52-3.1,11.65-12.46,19.32,2.88,9,18,19,57-2,105" transform="translate(2.74 10.89)"/><path class="cls-4" d="M821.25,239.23S809.49,228.5,806.49,233s13.3,14.14,13.16,15.82-4.15,4.68-7.59,5.39,9.18,9.17,12.16,10.79c8.28,4.5,4.22,19.19,32.24,22a3.29,3.29,0,0,0,3.63-3.24c.07-10,.06-38.25-2-45,0,0-6.49-13.27-18.73,5a10.72,10.72,0,0,1-7,5,8.45,8.45,0,0,1-9.33-5.3c-1.49-3.73-4.33-10.19-9.43-19.93-2.09-4-7.53-2.87-8.5-1.82a.36.36,0,0,1-.62-.27c.12-3.27,1.42-11.76,20.81-1.44a21.33,21.33,0,0,1,4.37,3.06c3.18,2.91,7.89,8.61,5.84,15.46" transform="translate(2.74 10.89)"/><path class="cls-4" d="M832.29,275.75s-19.8-1.49-25.8,3.63c0,0,10,39.12,82.33,41.12" transform="translate(2.74 10.89)"/><path class="cls-4" d="M860.11,280S878.3,284,885,289.88c.45.4.16.1.21-.49.42-5,2.65-20.29,2.21-23.15-.88-5.74,3.82-27.82,17.26-31.74,6.59-1.92,12.39,37.73-4.34,60.35a20.32,20.32,0,0,0-3.24,6.86L896,305.84" transform="translate(2.74 10.89)"/><path class="cls-4" d="M892.5,316.5c1-2,0-9,7.83-15.49,8.65-7.19,15.17-16.51,31.17-11.51s9.1,8.53,9.1,8.53-32.2-2.53-43.15,20.47" transform="translate(2.74 10.89)"/><path class="cls-4" d="M885,289.88s9.18,13.7,3.86,23.66" transform="translate(2.74 10.89)"/><path class="cls-4" d="M886,277.44s-14.3,0-18.42,4.55" transform="translate(2.74 10.89)"/><path class="cls-4" d="M911.23,257.81s5.27-2.31,8.27-2.31-9.92,26-12.46,26.49" transform="translate(2.74 10.89)"/><path class="cls-4" d="M766.5,45.5c-22.76,20.2-12.89,64,5.73,82.95.85.86,1.73,1.7,2.63,2.52,7.66,6.94,16.82,12.26,25.64,17.53" transform="translate(2.74 10.89)"/><path class="cls-4" d="M814.73,0s-9.23,31.5-5.23,39.5" transform="translate(2.74 10.89)"/><path class="cls-4" d="M877.5-1.5s-7,71-17,78" transform="translate(2.74 10.89)"/><path class="cls-4" d="M861.5,80.5s-8-41.77-43.33-43c-28.67-1,1.33,60,33.33,65" transform="translate(2.74 10.89)"/><path class="cls-4" d="M825,105.05s4.66,11.1,9.09,11.28" transform="translate(2.74 10.89)"/><path class="cls-4" d="M858.44,110.69s-11.63,9.7-10.78,10.26" transform="translate(2.74 10.89)"/><path class="cls-4" d="M852.84,101.5s-22.91,17-28.62,23c0,0,1.71-32.84,0-38.93" transform="translate(2.74 10.89)"/><path class="cls-4" d="M855.74,105.05c-1.24,1.45-6.24-8.55-.24-16.55s13-19,13.5-9.75c.32,5.93,1.5-4.25,6.83-2.15,3.33,1.32,3.63,3,3.33,4.07-.1.39-.72,2.73-.34,2.6,1.55-.54,7.68,1.23-1.32,6-4.92,2.62,4-.8-4.5,7.2" transform="translate(2.74 10.89)"/><path class="cls-4" d="M858.44,107.07c-.16-1.59,3.13-3.46,4.15-4.18,2.66-1.87,5.48-3.59,8.26-5.25a45.62,45.62,0,0,1,16.83-6c3.92-.55,10.05-.6,11.82,3.83,1,2.6,3.45-.09,4.63-1.13,2.39-2.11,4.75-3.91,8.14-3.23a18.09,18.09,0,0,1,5.36,2.32c4.94,2.84,9.82,5.9,13.83,9.93,4.46,4.48,8.72,11,7.52,17.56-2.48,13.55-31.48,8.55-48.48,11.55-9.34,1.65-6.4.31-8.2-1.34S861.38,136.63,858.44,107.07Z" transform="translate(2.74 10.89)"/><path class="cls-4" d="M409.5,101s-7.77,103.69,11.62,145.61" transform="translate(2.74 10.89)"/><path class="cls-4" d="M746.77,548.92s-11.18,7.56,3.36,33.3,17.16-6.1,19.85-2.18" transform="translate(2.74 10.89)"/><path class="cls-4" d="M801.34,616.38a37.2,37.2,0,0,1-14.82,4.13c-8.85.45-15.63,19-31.24-10.78s-5.15-27.51-5.15-27.51" transform="translate(2.74 10.89)"/><path class="cls-4" d="M1312.5,175.5s15.47-22.93-8.27-73.47-43.91-46-43.91-46" transform="translate(2.74 10.89)"/><path class="cls-4" d="M1303.5,181.5s-30-19-45.5-28c-8.15-4.71-22.5-19-22.5-27.51" transform="translate(2.74 10.89)"/><path class="cls-4" d="M1233.5,230.5c1,0,10.58-10-2.21-30s-21.48-23.18-21.48-23.18" transform="translate(2.74 10.89)"/><path class="cls-4" d="M1173.59,226.6s15.69-6.1,26.39-5.1c21.52,2,28.52,12,28.52,12" transform="translate(2.74 10.89)"/><path class="cls-4" d="M1177.24,271.11c.26.39,88.26-46.61,103.26-61.61s36.38-26.18,41.58-28c11.42-4,40.42-23,40.42-23" transform="translate(2.74 10.89)"/><path class="cls-4" d="M1378.5,133.5s-.85-4.94-3.93-7.47-14.91-22-18.07-31.53C1352,81,1351,65.63,1349.77,51.58,1348.4,35.41,1345.28,13.52,1363,5c14.39-6.92,20.6,19.82,23.08,28.68,0,0,11.42,38.82,8.42,55.82" transform="translate(2.74 10.89)"/><path class="cls-4" d="M1401.5,106.5c-1,0-19,25-31,34-6.84,5.13-53,30-67.22,42-33.19,28-33.3,28.35-126.54,80.7" transform="translate(2.74 10.89)"/><path class="cls-4" d="M1383.5,145.27s18-30.77,22-27.77c8,6,20,4,33.79,4.48" transform="translate(2.74 10.89)"/><path class="cls-4" d="M1439.29,44.87s-2.79,8.63-7.79,13.63c-1.41,1.41-3.46-7.63-6.23-6.82S1413.5,78.5,1413.5,78.5" transform="translate(2.74 10.89)"/><path class="cls-4" d="M1426.4,81c13.89-8.51,3.1-7.49,5.1-8.49s7.79-12.44,7.79-12.44" transform="translate(2.74 10.89)"/><path class="cls-4" d="M1403.5,99.25s-28-32-31.67-34.52c-.33-.23-12.36-11.12-21.35-4.67" transform="translate(2.74 10.89)"/><path class="cls-4" d="M1406.57,99.25s3.93-9.44,6.93-8.09,4.57,5.38,11-2.66c2.51-3.14,4.63-3.52,5.86-3.37a.27.27,0,0,0,.21-.47c-2.09-1.84-7.24-6-10.08-5.1a4.2,4.2,0,0,1-2.81-.25c-1.47-.6-3.52-1.17-5-.51a3.89,3.89,0,0,1-3.15.07c-2.42-1.07-6.14-1-4,11.63" transform="translate(2.74 10.89)"/><path class="cls-4" d="M1430.35,85.13s3.94.25-3.95,5.31,2.1,5.55-6.9,10.81" transform="translate(2.74 10.89)"/><path class="cls-4" d="M1404.88,87.74s-4.18-7.26-4.78-6.75-5.28,9.4-3.94,10" transform="translate(2.74 10.89)"/><path class="cls-4" d="M1407.24,97.77s1-2.28-2.36-4.28-3.6-4.1,2.51-2.55" transform="translate(2.74 10.89)"/><path class="cls-4" d="M1439.29,95.47s-4.1-2.79-6.45-1.38-2.81,2.9-3.08,5.16-11.26.25-17.26,4.25" transform="translate(2.74 10.89)"/><path class="cls-4" d="M1415.5,108.5c1,0,10-4.17,14.08-5,4.92-1,9.71,3,9.71,3" transform="translate(2.74 10.89)"/><path class="cls-4" d="M1386.46,140.36s46.52-18,49.78-18.45" transform="translate(2.74 10.89)"/><path class="cls-4" d="M1396,144.37c1.5.13,40.08-16,43.29-17.44" transform="translate(2.74 10.89)"/><path class="cls-4" d="M1360.5,178.5c-1-13,6-39,12.54-38.14a13.34,13.34,0,0,1,7.22,3.68,4.42,4.42,0,0,0,6.18-.11c3-3,7.7-5,12.06,5.57,0,0,22.64,55.85-1,112C1381.5,299.5,1362.73,207.48,1360.5,178.5Z" transform="translate(2.74 10.89)"/><path class="cls-4" d="M1348.65,227.78c.85-.28,9.85,15.72,15.85,26.34,8.52,15.1,27,16.38,28,19.38,0,0,26.58,26.94,46.79,30" transform="translate(2.74 10.89)"/><path class="cls-4" d="M1334.53,175.5s22-2,26,3" transform="translate(2.74 10.89)"/><path class="cls-4" d="M1408.14,199.5s26.94,16.54,31.15,29.27" transform="translate(2.74 10.89)"/><path class="cls-4" d="M1312.5,193.5s3.77-6.06-23.61,8.47" transform="translate(2.74 10.89)"/><path class="cls-4" d="M1285.5,218.5s-38,20-48,19.52" transform="translate(2.74 10.89)"/><path class="cls-4" d="M1290.5,222.5s-32.22,15.35-46.58,19.38a.62.62,0,0,0,0,1.18c7.71,2.9,36.95,16.59,62,64.05,8.76,16.62,15,34.69,16.25,53.53,1.06,16-1.57,31.83-6.09,47.12-2.29,7.75-5,15.36-7.9,22.92-.39,1-1.22,4.94-2.17,5.45-1.45.78-4-1.59-5.28-2.38q-5.54-3.51-10.75-7.5a158.78,158.78,0,0,1-35.69-38.13,155.33,155.33,0,0,1-19.13-40.1,114.33,114.33,0,0,1-5.25-27.82c-.52-10.22.7-20.44.55-30.67-.22-14.82-3.3-29.6-5.91-44.11" transform="translate(2.74 10.89)"/><path class="cls-4" d="M1178.67,305s55.49,24.59,57.87,103.55c1,32-9.61,51.95-9.61,51.95s-43.25-15.94-53.34-39.94" transform="translate(2.74 10.89)"/><path class="cls-4" d="M1392.5,273.5s-7,29.58,33.9,54c10.1,6,12.89,12.95,12.89,12.95" transform="translate(2.74 10.89)"/><path class="cls-4" d="M1439.29,348s-18,28.46-13.87,48" transform="translate(2.74 10.89)"/><path class="cls-4" d="M1439.29,372s-10.1,8.36-6.45,16.45" transform="translate(2.74 10.89)"/><path class="cls-4" d="M1423.72,388.42s-12.22-22.63-27.72-24.27-49.5-1.27-35.5,28,59,5.93,59,5.93" transform="translate(2.74 10.89)"/><path class="cls-4" d="M1371.83,404s-6.33,26.68,11.67,34.6,34.28-2.28,34.28-2.28" transform="translate(2.74 10.89)"/><path class="cls-4" d="M1430.67,399.2c2.83,2.3,10.83,12.3,10.83,16.3" transform="translate(2.74 10.89)"/><path class="cls-4" d="M1282.5,1287.5c1-1,16.57,0,4.29-34.53s-42.29-69.47-53.18-60.47c-21.38,17.67-1.11,104.8,23.89,97.4" transform="translate(2.74 10.89)"/><path class="cls-4" d="M1236.24,1273.48s-8.74,21-6.74,33" transform="translate(2.74 10.89)"/><path class="cls-4" d="M1230.38,1292.5s-21.88-24-26-19c-12.6,15.24,1.92,44,1.92,44" transform="translate(2.74 10.89)"/><path class="cls-4" d="M1239.5,1301.5s-82,28-70,92c3.76,20,6,15.38,13,30.69,0,0,64-17.93,75.55-80.36,5.45-29.33-7.58-29.33-6.57-37.33" transform="translate(2.74 10.89)"/><path class="cls-4" d="M1286.79,1294.76c6.91-6.11,14.17-13.37,23.22-16.08,12.62-3.78,25.85,2,37.39,6.7a104.34,104.34,0,0,1,22.26,12.91c16,11.77,28.76,27.71,35.77,46.34a102.88,102.88,0,0,1,6.07,26.87c.73,8-11,9-19,8" transform="translate(2.74 10.89)"/><path class="cls-4" d="M1354.85,1373.67s-65.41-26.55-72.35-68.17c-1-6-25-3.1-25-3.1" transform="translate(2.74 10.89)"/><path class="cls-4" d="M1411.54,1439.29c1-2.79,6-3.79,0-25.29-3.24-11.53-38.83-76.2-53.19-49.37-4.3,8-5.19,17.38-6,26.45l-2.31,26.23c-.69,7.88-1.36,14.61,2.17,22" transform="translate(2.74 10.89)"/><path class="cls-4" d="M1404.41,1379.25" transform="translate(2.74 10.89)"/><path class="cls-4" d="M1411,1367s10.09-15.23,28.3-16.86" transform="translate(2.74 10.89)"/><path class="cls-4" d="M1417.54,1439.29a50.43,50.43,0,0,1,21.75-24.81" transform="translate(2.74 10.89)"/><path class="cls-4" d="M1349.16,1426.89s-9,6.19-7.85,12.4" transform="translate(2.74 10.89)"/><path class="cls-4" d="M1333.4,1439.29c-1.9,1.21-58.65-47.21-127.28,0" transform="translate(2.74 10.89)"/><path class="cls-4" d="M1369.66,1298.29s16.41-6,26.63-10.89" transform="translate(2.74 10.89)"/><path class="cls-4" d="M1431,1260.62s7.48-8.12,13.48-12.12" transform="translate(2.74 10.89)"/><path class="cls-4" d="M1439.5,1223.5s-39.72-12.52-58.86-10.26" transform="translate(2.74 10.89)"/></g><g id="little_flowers" data-name="little flowers"><path class="cls-7" d="M314.8,696.79c.52-7-.33-13.37-7.11-16.61-2-.94-4.6-1.77-6-.15-.38.42-.63,1-1.13,1.23a2.43,2.43,0,0,1-1.23.12c-3.3-.24-6.46-.17-9.75-.17a3.9,3.9,0,0,1-3-1.09c-2.13-1.93-6.86-2.41-8.76,2.53a7.2,7.2,0,0,1-1.05,1.77c-1.79,2.27-3.48,5.6-.62,7.71,1.08.81,9.28,2.51,3.77,4.45-4,1.41-8.81.62-11.39,4.92-3,5-2,8-8,15-4.5,5.25,3.37,5.44,7.59,5.2a5.46,5.46,0,0,1,3.8,1.32c1.95,1.65,6.11,3.85,13.64,2.21a.31.31,0,0,1,.27.55c-3.14,2.51-10.45,9.54,1,13.19a.33.33,0,0,1,.23.28c.26,4.56-5.55,14.25-5.55,14.25s-2,3.94,11.67-2.84a.33.33,0,0,1,.45.18c8.75,24.79,23.93,14.34,24.84,13.69l.07-.07c.35-.5,4.21-5.77,9-2s8.4,1.41,8.93,1a.21.21,0,0,1,.15,0c.7,0,5.61-.54,2.92-7.73a11.58,11.58,0,0,1-.69-4.88c.64-8.43-2-17.65-3.43-21.94a22.08,22.08,0,0,1-.92-4.08c-.29-2.15-1.63-6.37-7-12.37-3.28-3.69-1.39-11.54-10.29-12.82A2.75,2.75,0,0,1,314.8,696.79Z" transform="translate(2.74 10.89)"/><path class="cls-6" d="M282.5,700.5s12.45-8.92,17.23-7c5.26,1.33,8.33,5.42,9.77,7.92a2.42,2.42,0,0,1-.95,3.33c-3.69,2-13.36,5.43-35.05,4.71" transform="translate(2.74 10.89)"/><path class="cls-6" d="M306.42,711.59a.89.89,0,0,0-1-1c-3.37.34-13.82,2.07-16.51,10.46-1,3.05,11.89-3.93,12.93-4.49C304,715.4,306,714.14,306.42,711.59Z" transform="translate(2.74 10.89)"/><path class="cls-6" d="M318.84,709.6s-4.62,1.56-2.31,5.45a7.45,7.45,0,0,0,4,3.18c4.85,1.7,8.18,3.77,1,8.27a8.67,8.67,0,0,0-1.11,5.11,7.07,7.07,0,0,1-1.65,4.87,22.9,22.9,0,0,0-4.9,9.94A7.74,7.74,0,0,1,312,750c-3.58,3.88-6.87,8.91-2.2,12.13,2.68-6.67,7.4-11.13,8.68-12.67a28.51,28.51,0,0,0,6.06-11.85,7.22,7.22,0,0,1,3.54-4.86c2.39-1.36,3.4-2.58,3.4-3.29" transform="translate(2.74 10.89)"/><path class="cls-6" d="M314.26,719.65s-2.31-3.07-21,19.39" transform="translate(2.74 10.89)"/><path class="cls-6" d="M318,730.69s-2.53,10.81-16.53,9.81c-4,0-3.85,5-3.85,5" transform="translate(2.74 10.89)"/><path class="cls-7" d="M464.5,646.5c3-5,2-8,2-8.47" transform="translate(2.74 10.89)"/><path class="cls-7" d="M443.5,661.5c2,7,12.86,5.9,17.3,2.63a2.54,2.54,0,0,0,.68-3.16c-1.39-2.49.32-2.62,2-3.47,1.37-.68,1.33-2.56,1.17-3.68a3.59,3.59,0,0,1,.18-1.72c.86-2.39,2.32-8.7-8.35-4.6a6.23,6.23,0,0,0-3.75,5,.54.54,0,0,1-.5.49l-6.75-.49" transform="translate(2.74 10.89)"/><path class="cls-7" d="M456.5,647.5s-7-1-12,3" transform="translate(2.74 10.89)"/><path class="cls-7" d="M417.5,674.5s4.69,3.75,9.53-3.28a10.69,10.69,0,0,1,1.65-1.84c8.59-7.72,16.91-6.19,18.82-12.88.16-.57-1.12-2.35-1.38-2.79a28.87,28.87,0,0,0-4.73-6.15c-5.95-5.89-14.1-8.2-22.35-7.29-7.79.87-15.4,4.75-17.28,12.83a2.31,2.31,0,0,1-1.67,1.69,9,9,0,0,0-1.27.43,7.21,7.21,0,0,0-3.31,10.35c1.29,2.15,3.16,4.57,5.5,5.71a1.94,1.94,0,0,0,1,.2,6,6,0,0,0,2.58-.76,3.74,3.74,0,0,1,4,.28,15.06,15.06,0,0,0,2.91,1.5" transform="translate(2.74 10.89)"/><path class="cls-4" d="M450.5,666.59S433,670,427.74,680.75" transform="translate(2.74 10.89)"/><path class="cls-7" d="M427.74,715.7s4.76-.08,15.76-4.14c11.17-1.92,18-6.41,16.5-20.71a13.4,13.4,0,0,1,1.27-7.32l.05-.11a22.39,22.39,0,0,0,2.19-6.85A21.68,21.68,0,0,1,466,669.5a.6.6,0,0,1,1.05,0c1.89,3.66,8.65,15.77,11.21,6.91,2.15-7.43,7.59,10.69,14.88,4.58a2.62,2.62,0,0,0,.71-3.05c-2.66-6-4.48-9.89-5.72-12.47a6.79,6.79,0,0,1,1.06-7.48,9,9,0,0,0,1.6-2.52,10.82,10.82,0,0,1,4.57-5.22c2.27-1.28,4.66-3.85,4.39-9a17.46,17.46,0,0,1,2.62-10.46c1.9-3,3.43-6.88,2.06-10.38-1.74-4.43-7.1-6-11.35-6.73a52.37,52.37,0,0,0-8.76-.6c-2,0-4.63.88-6.41-.22-2.19-1.35-2.52-4-5.26-4.87-1.34-.42-2.84-.38-4.07-1.08-2.13-1.23-2.52-4.05-3.29-6.39-1.11-3.38-3.71-6.45-7.19-7.27a7.37,7.37,0,0,0-6.82,1.94c-2.12,2.13-1.66,4.69-1.66,7.16a6.23,6.23,0,0,1-1.42,4.55c-1.49,1.45-3.9,1.39-5.68,2.47s-2.69,3.18-3.22,5.21a25.44,25.44,0,0,0,1.58,16.94,28.15,28.15,0,0,0,11.61,12.53c1.7,1,3.73,1.79,5.58,1.15a7.77,7.77,0,0,0,2.64-1.82c1.95-1.79,3.9-3.57,5.83-5.38,6.89-6.42,14.2-14.31,12-24.53" transform="translate(2.74 10.89)"/><path d="M467.46,649.85A135.66,135.66,0,0,1,493.74,630a.25.25,0,0,0-.25-.43,136.73,136.73,0,0,0-26.39,20c-.23.23.13.58.36.36Z" transform="translate(2.74 10.89)"/><path d="M487.61,667.25c-1.69-.54-3.09-1.72-4.63-2.56a41.76,41.76,0,0,0-4.57-2.07c-3.12-1.23-6.45-2.67-9.88-2.42-.22,0-.37.35-.12.47a20.51,20.51,0,0,0,5.63,1.77c.31.06.45-.43.13-.48a19.74,19.74,0,0,1-5.51-1.73l-.13.47c3.48-.25,6.9,1.26,10.07,2.53a37.64,37.64,0,0,1,4.72,2.23,23,23,0,0,0,4.16,2.28c.3.1.43-.39.13-.49Z" transform="translate(2.74 10.89)"/><path d="M456.54,640.25a33.51,33.51,0,0,0,.5-9.38c-.18-3.5-.33-7-.4-10.51q-.18-10.47.44-20.93c0-.32-.48-.32-.5,0-.4,6.8-.56,13.62-.44,20.44.05,3.35.18,6.71.35,10.07a35.82,35.82,0,0,1-.44,10.18.25.25,0,0,0,.49.13Z" transform="translate(2.74 10.89)"/><path d="M459.76,628.74a27.42,27.42,0,0,0,5.23-9.28c.1-.3-.38-.43-.48-.13a26.93,26.93,0,0,1-5.1,9c-.21.25.14.6.35.36Z" transform="translate(2.74 10.89)"/><path d="M451.69,617.34,450,610.63a.25.25,0,0,0-.48.13l1.73,6.71a.25.25,0,0,0,.48-.13Z" transform="translate(2.74 10.89)"/><path d="M445.6,654.92c-3.86-.58-7.71-.06-11.55.39l-12.51,1.49a.25.25,0,0,0,0,.5,115.74,115.74,0,0,1,11.91.89c.32,0,.31-.46,0-.5a115.74,115.74,0,0,0-11.91-.89v.5l12-1.43c3.94-.47,7.93-1.06,11.89-.47.32.05.45-.43.13-.48Z" transform="translate(2.74 10.89)"/><path d="M408.34,667.11a25.45,25.45,0,0,1,9.9-6c.31-.09.18-.58-.13-.48A25.87,25.87,0,0,0,408,666.76c-.23.22.12.58.35.35Z" transform="translate(2.74 10.89)"/><path d="M412.53,655.41a29,29,0,0,0-8.26.44c-.31.06-.18.54.14.48a28.34,28.34,0,0,1,8.12-.42c.32,0,.32-.47,0-.5Z" transform="translate(2.74 10.89)"/><path d="M446.73,690.88a54.21,54.21,0,0,1,1.39-10.76c.77-3.3,1.65-7.17,3.81-9.87l-.39,0a3.64,3.64,0,0,1,.12,2.86c-.19,1-.39,2-.59,2.94l-1.15,5.69c-.07.31.42.45.48.13l1.39-6.86c.31-1.53,1.11-3.57.18-5a.24.24,0,0,0-.39-.05c-2.16,2.69-3.06,6.42-3.85,9.71a54.94,54.94,0,0,0-1.5,11.27c0,.32.49.32.5,0Z" transform="translate(2.74 10.89)"/><path d="M458.35,648.47a8.72,8.72,0,0,0,.07,3.1,3,3,0,0,0,1.64,1.73c.32.18.92.47,1,.88s-.7.74-1,1a8.14,8.14,0,0,0-1.78,2.22c-.16.28.28.54.43.25a7.48,7.48,0,0,1,2.05-2.39c.29-.21.72-.39.8-.78a1.09,1.09,0,0,0-.4-.93c-.6-.64-1.59-.82-2.08-1.56-.62-.94-.37-2.43-.28-3.48,0-.32-.47-.32-.5,0Z" transform="translate(2.74 10.89)"/><path d="M458,660.47c-1.66,1.64-4.1,3.17-6.49,2.14-.29-.13-.55.3-.25.43,2.62,1.13,5.24-.4,7.1-2.21.23-.23-.13-.58-.36-.36Z" transform="translate(2.74 10.89)"/><path class="cls-7" d="M1307.5,208.5a12.26,12.26,0,0,0-5.74-3.05c-3.26-.95,1.6-4.57,5.74-3.48,1.27.34.64-1.72,0-3.26a2.11,2.11,0,0,1,2.88-2.71c1.49.76,3.53,2.68,6.29,6.8" transform="translate(2.74 10.89)"/><path class="cls-7" d="M1310.4,196a6.69,6.69,0,0,1,9.1-2.5,8.28,8.28,0,0,1,2.85,8.47c-.85,3.53,7.06,4.53-4.9,6.53" transform="translate(2.74 10.89)"/><path class="cls-7" d="M1347.51,220.19s-1.43-1.69-4.22,3.31-11.07-4.47-5.93,4.76,3.14,4.24,3.14,12.24" transform="translate(2.74 10.89)"/><path class="cls-7" d="M1314.71,228.77s-2.83-4.74-6-.51-8.18.48,0,6.63c2.4,1.8,1.86,3,.71,3.66a3.24,3.24,0,0,1-4.08-.71c-2.59-3-5.08-1.55-6.82,3.66-2,6,6,4,8,5,2.83,1.41,6,3,14,0s0-4,1.85-5.86c3.39-3.4,3.15-12.14,2.25-14s4.9-1.1,3.9.9,6,5,6,7.57-1,3.43,0,8.81c1.49,7.83,15,7.62,14.12,2.51s-6.15-7.89-3.15-14.89c2.87-6.69,5-2,5-6s1-4-.92-7c-4.16-6.53-6.08,5-7.08-2s-8-3-8-5.16-8,.16-6.16-2.84c5.69-9.12-1.87-6-2.28-7.95a7.35,7.35,0,0,0-2-3.44,4.74,4.74,0,0,0,2-4.51c-.87-5.41-12.58.65-12.58.65" transform="translate(2.74 10.89)"/><path class="cls-7" d="M1313.5,217.5s-3.62-.17-4.81,2.42-5.89-2.53-4.19,2.58c1,3-2.55,6.42,1.72,7.71" transform="translate(2.74 10.89)"/><path class="cls-7" d="M1315.5,207.5s.27-2.38-4.3,1c-2.7,2-3.7-3-24.81,0-4,.57-4.68,12,5.14,14,5,1,9,0,13,0" transform="translate(2.74 10.89)"/></g></svg>